<?xml version="1.0" encoding="UTF-8"?>
<svg id="spaceflight-export" aria-label="下降与气动作用" viewBox="0 0 1040 610" role="img" xmlns="http://www.w3.org/2000/svg" width="1040" height="610"><title>下降与气动作用</title><desc>MathPhysics 原创 SVG。可编辑的路径、文字与渐变；图形不按真实比例，演示不是飞行遥测。</desc><defs><linearGradient id="spaceflight-export-gradient-1" gradientUnits="userSpaceOnUse" x1="0" y1="0" x2="0" y2="610"><stop offset="0" stop-color="#071120"/><stop offset="0.65" stop-color="#102642"/><stop offset="1" stop-color="#28556c"/></linearGradient><linearGradient id="spaceflight-export-gradient-2" gradientUnits="userSpaceOnUse" x1="0" y1="0" x2="0" y2="610"><stop offset="0" stop-color="#071120"/><stop offset="0.65" stop-color="#102642"/><stop offset="1" stop-color="#123851"/></linearGradient><linearGradient id="spaceflight-export-gradient-3" gradientUnits="userSpaceOnUse" x1="-22" y1="0" x2="22" y2="0"><stop offset="0" stop-color="#87a6bf"/><stop offset="0.28" stop-color="#f8fcff"/><stop offset="0.7" stop-color="#dceaf0"/><stop offset="1" stop-color="#90aebe"/></linearGradient></defs><g data-vector-layer="illustration"><path d="M0 0L1040 0Q1040 0 1040 0L1040 610Q1040 610 1040 610L0 610Q0 610 0 610L0 0Q0 0 0 0Z" transform="matrix(1 0 0 1 0 0)" fill="url(#spaceflight-export-gradient-1)" opacity="1"/><path d="M1.8 0A1.8 1.8 0 0 1 -1.8 0A1.8 1.8 0 0 1 1.8 0" transform="matrix(1 0 0 1 0 0)" fill="rgba(184,216,252,0.5)" opacity="1"/><path d="M981.5416 115.234A1 1 0 0 1 979.5416 115.234A1 1 0 0 1 981.5416 115.234" transform="matrix(1 0 0 1 0 0)" fill="rgba(184,216,252,0.19)" opacity="1"/><path d="M922.0832 230.4679A1 1 0 0 1 920.0832 230.4679A1 1 0 0 1 922.0832 230.4679" transform="matrix(1 0 0 1 0 0)" fill="rgba(184,216,252,0.19)" opacity="1"/><path d="M862.6249 345.7019A1 1 0 0 1 860.6249 345.7019A1 1 0 0 1 862.6249 345.7019" transform="matrix(1 0 0 1 0 0)" fill="rgba(184,216,252,0.5)" opacity="1"/><path d="M803.1665 460.9359A1 1 0 0 1 801.1665 460.9359A1 1 0 0 1 803.1665 460.9359" transform="matrix(1 0 0 1 0 0)" fill="rgba(184,216,252,0.19)" opacity="1"/><path d="M743.7081 576.1698A1 1 0 0 1 741.7081 576.1698A1 1 0 0 1 743.7081 576.1698" transform="matrix(1 0 0 1 0 0)" fill="rgba(184,216,252,0.19)" opacity="1"/><path d="M684.2497 81.4038A1 1 0 0 1 682.2497 81.4038A1 1 0 0 1 684.2497 81.4038" transform="matrix(1 0 0 1 0 0)" fill="rgba(184,216,252,0.5)" opacity="1"/><path d="M625.5914 196.6378A1.8 1.8 0 0 1 621.9914 196.6378A1.8 1.8 0 0 1 625.5914 196.6378" transform="matrix(1 0 0 1 0 0)" fill="rgba(184,216,252,0.19)" opacity="1"/><path d="M565.333 311.8718A1 1 0 0 1 563.333 311.8718A1 1 0 0 1 565.333 311.8718" transform="matrix(1 0 0 1 0 0)" fill="rgba(184,216,252,0.19)" opacity="1"/><path d="M505.8746 427.1057A1 1 0 0 1 503.8746 427.1057A1 1 0 0 1 505.8746 427.1057" transform="matrix(1 0 0 1 0 0)" fill="rgba(184,216,252,0.5)" opacity="1"/><path d="M446.4162 542.3397A1 1 0 0 1 444.4162 542.3397A1 1 0 0 1 446.4162 542.3397" transform="matrix(1 0 0 1 0 0)" fill="rgba(184,216,252,0.19)" opacity="1"/><path d="M386.9579 47.5737A1 1 0 0 1 384.9579 47.5737A1 1 0 0 1 386.9579 47.5737" transform="matrix(1 0 0 1 0 0)" fill="rgba(184,216,252,0.19)" opacity="1"/><path d="M327.4995 162.8076A1 1 0 0 1 325.4995 162.8076A1 1 0 0 1 327.4995 162.8076" transform="matrix(1 0 0 1 0 0)" fill="rgba(184,216,252,0.5)" opacity="1"/><path d="M268.0411 278.0416A1 1 0 0 1 266.0411 278.0416A1 1 0 0 1 268.0411 278.0416" transform="matrix(1 0 0 1 0 0)" fill="rgba(184,216,252,0.19)" opacity="1"/><path d="M209.3827 393.2756A1.8 1.8 0 0 1 205.7827 393.2756A1.8 1.8 0 0 1 209.3827 393.2756" transform="matrix(1 0 0 1 0 0)" fill="rgba(184,216,252,0.19)" opacity="1"/><path d="M149.1244 508.5095A1 1 0 0 1 147.1244 508.5095A1 1 0 0 1 149.1244 508.5095" transform="matrix(1 0 0 1 0 0)" fill="rgba(184,216,252,0.5)" opacity="1"/><path d="M89.666 13.7435A1 1 0 0 1 87.666 13.7435A1 1 0 0 1 89.666 13.7435" transform="matrix(1 0 0 1 0 0)" fill="rgba(184,216,252,0.19)" opacity="1"/><path d="M30.2076 128.9775A1 1 0 0 1 28.2076 128.9775A1 1 0 0 1 30.2076 128.9775" transform="matrix(1 0 0 1 0 0)" fill="rgba(184,216,252,0.19)" opacity="1"/><path d="M1010.7492 244.2114A1 1 0 0 1 1008.7492 244.2114A1 1 0 0 1 1010.7492 244.2114" transform="matrix(1 0 0 1 0 0)" fill="rgba(184,216,252,0.5)" opacity="1"/><path d="M951.2909 359.4454A1 1 0 0 1 949.2909 359.4454A1 1 0 0 1 951.2909 359.4454" transform="matrix(1 0 0 1 0 0)" fill="rgba(184,216,252,0.19)" opacity="1"/><path d="M891.8325 474.6794A1 1 0 0 1 889.8325 474.6794A1 1 0 0 1 891.8325 474.6794" transform="matrix(1 0 0 1 0 0)" fill="rgba(184,216,252,0.19)" opacity="1"/><path d="M833.1741 589.9133A1.8 1.8 0 0 1 829.5741 589.9133A1.8 1.8 0 0 1 833.1741 589.9133" transform="matrix(1 0 0 1 0 0)" fill="rgba(184,216,252,0.5)" opacity="1"/><path d="M772.9157 95.1473A1 1 0 0 1 770.9157 95.1473A1 1 0 0 1 772.9157 95.1473" transform="matrix(1 0 0 1 0 0)" fill="rgba(184,216,252,0.19)" opacity="1"/><path d="M713.4574 210.3813A1 1 0 0 1 711.4574 210.3813A1 1 0 0 1 713.4574 210.3813" transform="matrix(1 0 0 1 0 0)" fill="rgba(184,216,252,0.19)" opacity="1"/><path d="M653.999 325.6153A1 1 0 0 1 651.999 325.6153A1 1 0 0 1 653.999 325.6153" transform="matrix(1 0 0 1 0 0)" fill="rgba(184,216,252,0.5)" opacity="1"/><path d="M594.5406 440.8492A1 1 0 0 1 592.5406 440.8492A1 1 0 0 1 594.5406 440.8492" transform="matrix(1 0 0 1 0 0)" fill="rgba(184,216,252,0.19)" opacity="1"/><path d="M535.0822 556.0832A1 1 0 0 1 533.0822 556.0832A1 1 0 0 1 535.0822 556.0832" transform="matrix(1 0 0 1 0 0)" fill="rgba(184,216,252,0.19)" opacity="1"/><path d="M475.6239 61.3172A1 1 0 0 1 473.6239 61.3172A1 1 0 0 1 475.6239 61.3172" transform="matrix(1 0 0 1 0 0)" fill="rgba(184,216,252,0.5)" opacity="1"/><path d="M416.9655 176.5511A1.8 1.8 0 0 1 413.3655 176.5511A1.8 1.8 0 0 1 416.9655 176.5511" transform="matrix(1 0 0 1 0 0)" fill="rgba(184,216,252,0.19)" opacity="1"/><path d="M356.7071 291.7851A1 1 0 0 1 354.7071 291.7851A1 1 0 0 1 356.7071 291.7851" transform="matrix(1 0 0 1 0 0)" fill="rgba(184,216,252,0.19)" opacity="1"/><path d="M297.2487 407.0191A1 1 0 0 1 295.2487 407.0191A1 1 0 0 1 297.2487 407.0191" transform="matrix(1 0 0 1 0 0)" fill="rgba(184,216,252,0.5)" opacity="1"/><path d="M237.7904 522.253A1 1 0 0 1 235.7904 522.253A1 1 0 0 1 237.7904 522.253" transform="matrix(1 0 0 1 0 0)" fill="rgba(184,216,252,0.19)" opacity="1"/><path d="M178.332 27.487A1 1 0 0 1 176.332 27.487A1 1 0 0 1 178.332 27.487" transform="matrix(1 0 0 1 0 0)" fill="rgba(184,216,252,0.19)" opacity="1"/><path d="M118.8736 142.721A1 1 0 0 1 116.8736 142.721A1 1 0 0 1 118.8736 142.721" transform="matrix(1 0 0 1 0 0)" fill="rgba(184,216,252,0.5)" opacity="1"/><path d="M59.4152 257.9549A1 1 0 0 1 57.4152 257.9549A1 1 0 0 1 59.4152 257.9549" transform="matrix(1 0 0 1 0 0)" fill="rgba(184,216,252,0.19)" opacity="1"/><path d="M1040.7569 373.1889A1.8 1.8 0 0 1 1037.1569 373.1889A1.8 1.8 0 0 1 1040.7569 373.1889" transform="matrix(1 0 0 1 0 0)" fill="rgba(184,216,252,0.19)" opacity="1"/><path d="M980.4985 488.4229A1 1 0 0 1 978.4985 488.4229A1 1 0 0 1 980.4985 488.4229" transform="matrix(1 0 0 1 0 0)" fill="rgba(184,216,252,0.5)" opacity="1"/><path d="M921.0401 603.6568A1 1 0 0 1 919.0401 603.6568A1 1 0 0 1 921.0401 603.6568" transform="matrix(1 0 0 1 0 0)" fill="rgba(184,216,252,0.19)" opacity="1"/><path d="M861.5817 108.8908A1 1 0 0 1 859.5817 108.8908A1 1 0 0 1 861.5817 108.8908" transform="matrix(1 0 0 1 0 0)" fill="rgba(184,216,252,0.19)" opacity="1"/><path d="M802.1234 224.1248A1 1 0 0 1 800.1234 224.1248A1 1 0 0 1 802.1234 224.1248" transform="matrix(1 0 0 1 0 0)" fill="rgba(184,216,252,0.5)" opacity="1"/><path d="M742.665 339.3588A1 1 0 0 1 740.665 339.3588A1 1 0 0 1 742.665 339.3588" transform="matrix(1 0 0 1 0 0)" fill="rgba(184,216,252,0.19)" opacity="1"/><path d="M683.2066 454.5927A1 1 0 0 1 681.2066 454.5927A1 1 0 0 1 683.2066 454.5927" transform="matrix(1 0 0 1 0 0)" fill="rgba(184,216,252,0.19)" opacity="1"/><path d="M624.5482 569.8267A1.8 1.8 0 0 1 620.9482 569.8267A1.8 1.8 0 0 1 624.5482 569.8267" transform="matrix(1 0 0 1 0 0)" fill="rgba(184,216,252,0.5)" opacity="1"/><path d="M564.2899 75.0607A1 1 0 0 1 562.2899 75.0607A1 1 0 0 1 564.2899 75.0607" transform="matrix(1 0 0 1 0 0)" fill="rgba(184,216,252,0.19)" opacity="1"/><path d="M504.8315 190.2946A1 1 0 0 1 502.8315 190.2946A1 1 0 0 1 504.8315 190.2946" transform="matrix(1 0 0 1 0 0)" fill="rgba(184,216,252,0.19)" opacity="1"/><path d="M445.3731 305.5286A1 1 0 0 1 443.3731 305.5286A1 1 0 0 1 445.3731 305.5286" transform="matrix(1 0 0 1 0 0)" fill="rgba(184,216,252,0.5)" opacity="1"/><path d="M385.9147 420.7626A1 1 0 0 1 383.9147 420.7626A1 1 0 0 1 385.9147 420.7626" transform="matrix(1 0 0 1 0 0)" fill="rgba(184,216,252,0.19)" opacity="1"/><path d="M326.4564 535.9965A1 1 0 0 1 324.4564 535.9965A1 1 0 0 1 326.4564 535.9965" transform="matrix(1 0 0 1 0 0)" fill="rgba(184,216,252,0.19)" opacity="1"/><path d="M266.998 41.2305A1 1 0 0 1 264.998 41.2305A1 1 0 0 1 266.998 41.2305" transform="matrix(1 0 0 1 0 0)" fill="rgba(184,216,252,0.5)" opacity="1"/><path d="M208.3396 156.4645A1.8 1.8 0 0 1 204.7396 156.4645A1.8 1.8 0 0 1 208.3396 156.4645" transform="matrix(1 0 0 1 0 0)" fill="rgba(184,216,252,0.19)" opacity="1"/><path d="M148.0812 271.6984A1 1 0 0 1 146.0812 271.6984A1 1 0 0 1 148.0812 271.6984" transform="matrix(1 0 0 1 0 0)" fill="rgba(184,216,252,0.19)" opacity="1"/><path d="M88.6229 386.9324A1 1 0 0 1 86.6229 386.9324A1 1 0 0 1 88.6229 386.9324" transform="matrix(1 0 0 1 0 0)" fill="rgba(184,216,252,0.5)" opacity="1"/><path d="M29.1645 502.1664A1 1 0 0 1 27.1645 502.1664A1 1 0 0 1 29.1645 502.1664" transform="matrix(1 0 0 1 0 0)" fill="rgba(184,216,252,0.19)" opacity="1"/><path d="M1009.7061 7.4003A1 1 0 0 1 1007.7061 7.4003A1 1 0 0 1 1009.7061 7.4003" transform="matrix(1 0 0 1 0 0)" fill="rgba(184,216,252,0.19)" opacity="1"/><path d="M950.2477 122.6343A1 1 0 0 1 948.2477 122.6343A1 1 0 0 1 950.2477 122.6343" transform="matrix(1 0 0 1 0 0)" fill="rgba(184,216,252,0.5)" opacity="1"/><path d="M890.7894 237.8683A1 1 0 0 1 888.7894 237.8683A1 1 0 0 1 890.7894 237.8683" transform="matrix(1 0 0 1 0 0)" fill="rgba(184,216,252,0.19)" opacity="1"/><path d="M832.131 353.1023A1.8 1.8 0 0 1 828.531 353.1023A1.8 1.8 0 0 1 832.131 353.1023" transform="matrix(1 0 0 1 0 0)" fill="rgba(184,216,252,0.19)" opacity="1"/><path d="M771.8726 468.3362A1 1 0 0 1 769.8726 468.3362A1 1 0 0 1 771.8726 468.3362" transform="matrix(1 0 0 1 0 0)" fill="rgba(184,216,252,0.5)" opacity="1"/><path d="M712.4142 583.5702A1 1 0 0 1 710.4142 583.5702A1 1 0 0 1 712.4142 583.5702" transform="matrix(1 0 0 1 0 0)" fill="rgba(184,216,252,0.19)" opacity="1"/><path d="M652.9559 88.8042A1 1 0 0 1 650.9559 88.8042A1 1 0 0 1 652.9559 88.8042" transform="matrix(1 0 0 1 0 0)" fill="rgba(184,216,252,0.19)" opacity="1"/><path d="M593.4975 204.0381A1 1 0 0 1 591.4975 204.0381A1 1 0 0 1 593.4975 204.0381" transform="matrix(1 0 0 1 0 0)" fill="rgba(184,216,252,0.5)" opacity="1"/><path d="M534.0391 319.2721A1 1 0 0 1 532.0391 319.2721A1 1 0 0 1 534.0391 319.2721" transform="matrix(1 0 0 1 0 0)" fill="rgba(184,216,252,0.19)" opacity="1"/><path d="M474.5807 434.5061A1 1 0 0 1 472.5807 434.5061A1 1 0 0 1 474.5807 434.5061" transform="matrix(1 0 0 1 0 0)" fill="rgba(184,216,252,0.19)" opacity="1"/><path d="M415.9224 549.74A1.8 1.8 0 0 1 412.3224 549.74A1.8 1.8 0 0 1 415.9224 549.74" transform="matrix(1 0 0 1 0 0)" fill="rgba(184,216,252,0.5)" opacity="1"/><path d="M355.664 54.974A1 1 0 0 1 353.664 54.974A1 1 0 0 1 355.664 54.974" transform="matrix(1 0 0 1 0 0)" fill="rgba(184,216,252,0.19)" opacity="1"/><path d="M296.2056 170.208A1 1 0 0 1 294.2056 170.208A1 1 0 0 1 296.2056 170.208" transform="matrix(1 0 0 1 0 0)" fill="rgba(184,216,252,0.19)" opacity="1"/><path d="M236.7472 285.4419A1 1 0 0 1 234.7472 285.4419A1 1 0 0 1 236.7472 285.4419" transform="matrix(1 0 0 1 0 0)" fill="rgba(184,216,252,0.5)" opacity="1"/><path d="M177.2889 400.6759A1 1 0 0 1 175.2889 400.6759A1 1 0 0 1 177.2889 400.6759" transform="matrix(1 0 0 1 0 0)" fill="rgba(184,216,252,0.19)" opacity="1"/><path d="M117.8305 515.9099A1 1 0 0 1 115.8305 515.9099A1 1 0 0 1 117.8305 515.9099" transform="matrix(1 0 0 1 0 0)" fill="rgba(184,216,252,0.19)" opacity="1"/><path d="M58.3721 21.1438A1 1 0 0 1 56.3721 21.1438A1 1 0 0 1 58.3721 21.1438" transform="matrix(1 0 0 1 0 0)" fill="rgba(184,216,252,0.5)" opacity="1"/><path d="M1039.7137 136.3778A1.8 1.8 0 0 1 1036.1137 136.3778A1.8 1.8 0 0 1 1039.7137 136.3778" transform="matrix(1 0 0 1 0 0)" fill="rgba(184,216,252,0.19)" opacity="1"/><path d="M979.4554 251.6118A1 1 0 0 1 977.4554 251.6118A1 1 0 0 1 979.4554 251.6118" transform="matrix(1 0 0 1 0 0)" fill="rgba(184,216,252,0.19)" opacity="1"/><path d="M919.997 366.8458A1 1 0 0 1 917.997 366.8458A1 1 0 0 1 919.997 366.8458" transform="matrix(1 0 0 1 0 0)" fill="rgba(184,216,252,0.5)" opacity="1"/><path d="M860.5386 482.0797A1 1 0 0 1 858.5386 482.0797A1 1 0 0 1 860.5386 482.0797" transform="matrix(1 0 0 1 0 0)" fill="rgba(184,216,252,0.19)" opacity="1"/><path d="M801.0802 597.3137A1 1 0 0 1 799.0802 597.3137A1 1 0 0 1 801.0802 597.3137" transform="matrix(1 0 0 1 0 0)" fill="rgba(184,216,252,0.19)" opacity="1"/><path d="M741.6219 102.5477A1 1 0 0 1 739.6219 102.5477A1 1 0 0 1 741.6219 102.5477" transform="matrix(1 0 0 1 0 0)" fill="rgba(184,216,252,0.5)" opacity="1"/><path d="M682.1635 217.7816A1 1 0 0 1 680.1635 217.7816A1 1 0 0 1 682.1635 217.7816" transform="matrix(1 0 0 1 0 0)" fill="rgba(184,216,252,0.19)" opacity="1"/><path d="M623.5051 333.0156A1.8 1.8 0 0 1 619.9051 333.0156A1.8 1.8 0 0 1 623.5051 333.0156" transform="matrix(1 0 0 1 0 0)" fill="rgba(184,216,252,0.19)" opacity="1"/><path d="M563.2467 448.2496A1 1 0 0 1 561.2467 448.2496A1 1 0 0 1 563.2467 448.2496" transform="matrix(1 0 0 1 0 0)" fill="rgba(184,216,252,0.5)" opacity="1"/><path d="M503.7884 563.4835A1 1 0 0 1 501.7884 563.4835A1 1 0 0 1 503.7884 563.4835" transform="matrix(1 0 0 1 0 0)" fill="rgba(184,216,252,0.19)" opacity="1"/><path d="M444.33 68.7175A1 1 0 0 1 442.33 68.7175A1 1 0 0 1 444.33 68.7175" transform="matrix(1 0 0 1 0 0)" fill="rgba(184,216,252,0.19)" opacity="1"/><path d="M384.8716 183.9515A1 1 0 0 1 382.8716 183.9515A1 1 0 0 1 384.8716 183.9515" transform="matrix(1 0 0 1 0 0)" fill="rgba(184,216,252,0.5)" opacity="1"/><path d="M325.4132 299.1854A1 1 0 0 1 323.4132 299.1854A1 1 0 0 1 325.4132 299.1854" transform="matrix(1 0 0 1 0 0)" fill="rgba(184,216,252,0.19)" opacity="1"/><path d="M265.9549 414.4194A1 1 0 0 1 263.9549 414.4194A1 1 0 0 1 265.9549 414.4194" transform="matrix(1 0 0 1 0 0)" fill="rgba(184,216,252,0.19)" opacity="1"/><path d="M207.2965 529.6534A1.8 1.8 0 0 1 203.6965 529.6534A1.8 1.8 0 0 1 207.2965 529.6534" transform="matrix(1 0 0 1 0 0)" fill="rgba(184,216,252,0.5)" opacity="1"/><path d="M147.0381 34.8873A1 1 0 0 1 145.0381 34.8873A1 1 0 0 1 147.0381 34.8873" transform="matrix(1 0 0 1 0 0)" fill="rgba(184,216,252,0.19)" opacity="1"/><path d="M87.5797 150.1213A1 1 0 0 1 85.5797 150.1213A1 1 0 0 1 87.5797 150.1213" transform="matrix(1 0 0 1 0 0)" fill="rgba(184,216,252,0.19)" opacity="1"/><path d="M28.1214 265.3553A1 1 0 0 1 26.1214 265.3553A1 1 0 0 1 28.1214 265.3553" transform="matrix(1 0 0 1 0 0)" fill="rgba(184,216,252,0.5)" opacity="1"/><path d="M1008.663 380.5893A1 1 0 0 1 1006.663 380.5893A1 1 0 0 1 1008.663 380.5893" transform="matrix(1 0 0 1 0 0)" fill="rgba(184,216,252,0.19)" opacity="1"/><path d="M949.2046 495.8232A1 1 0 0 1 947.2046 495.8232A1 1 0 0 1 949.2046 495.8232" transform="matrix(1 0 0 1 0 0)" fill="rgba(184,216,252,0.19)" opacity="1"/><path d="M0 516L1040 516Q1040 516 1040 516L1040 610Q1040 610 1040 610L0 610Q0 610 0 610L0 516Q0 516 0 516Z" transform="matrix(1 0 0 1 0 0)" fill="#172e3d" opacity="1"/><path d="M0 516L1040 516" transform="matrix(1 0 0 1 0 0)" fill="none" stroke="#3d7684" stroke-width="3" stroke-linecap="round" stroke-linejoin="round" opacity="1"/><path d="M0 0L1040 0Q1040 0 1040 0L1040 610Q1040 610 1040 610L0 610Q0 610 0 610L0 0Q0 0 0 0Z" transform="matrix(1 0 0 1 0 0)" fill="url(#spaceflight-export-gradient-2)" opacity="1"/><path d="M1.8 0A1.8 1.8 0 0 1 -1.8 0A1.8 1.8 0 0 1 1.8 0" transform="matrix(1 0 0 1 0 0)" fill="rgba(184,216,252,0.5)" opacity="1"/><path d="M981.5416 115.234A1 1 0 0 1 979.5416 115.234A1 1 0 0 1 981.5416 115.234" transform="matrix(1 0 0 1 0 0)" fill="rgba(184,216,252,0.19)" opacity="1"/><path d="M922.0832 230.4679A1 1 0 0 1 920.0832 230.4679A1 1 0 0 1 922.0832 230.4679" transform="matrix(1 0 0 1 0 0)" fill="rgba(184,216,252,0.19)" opacity="1"/><path d="M862.6249 345.7019A1 1 0 0 1 860.6249 345.7019A1 1 0 0 1 862.6249 345.7019" transform="matrix(1 0 0 1 0 0)" fill="rgba(184,216,252,0.5)" opacity="1"/><path d="M803.1665 460.9359A1 1 0 0 1 801.1665 460.9359A1 1 0 0 1 803.1665 460.9359" transform="matrix(1 0 0 1 0 0)" fill="rgba(184,216,252,0.19)" opacity="1"/><path d="M743.7081 576.1698A1 1 0 0 1 741.7081 576.1698A1 1 0 0 1 743.7081 576.1698" transform="matrix(1 0 0 1 0 0)" fill="rgba(184,216,252,0.19)" opacity="1"/><path d="M684.2497 81.4038A1 1 0 0 1 682.2497 81.4038A1 1 0 0 1 684.2497 81.4038" transform="matrix(1 0 0 1 0 0)" fill="rgba(184,216,252,0.5)" opacity="1"/><path d="M625.5914 196.6378A1.8 1.8 0 0 1 621.9914 196.6378A1.8 1.8 0 0 1 625.5914 196.6378" transform="matrix(1 0 0 1 0 0)" fill="rgba(184,216,252,0.19)" opacity="1"/><path d="M565.333 311.8718A1 1 0 0 1 563.333 311.8718A1 1 0 0 1 565.333 311.8718" transform="matrix(1 0 0 1 0 0)" fill="rgba(184,216,252,0.19)" opacity="1"/><path d="M505.8746 427.1057A1 1 0 0 1 503.8746 427.1057A1 1 0 0 1 505.8746 427.1057" transform="matrix(1 0 0 1 0 0)" fill="rgba(184,216,252,0.5)" opacity="1"/><path d="M446.4162 542.3397A1 1 0 0 1 444.4162 542.3397A1 1 0 0 1 446.4162 542.3397" transform="matrix(1 0 0 1 0 0)" fill="rgba(184,216,252,0.19)" opacity="1"/><path d="M386.9579 47.5737A1 1 0 0 1 384.9579 47.5737A1 1 0 0 1 386.9579 47.5737" transform="matrix(1 0 0 1 0 0)" fill="rgba(184,216,252,0.19)" opacity="1"/><path d="M327.4995 162.8076A1 1 0 0 1 325.4995 162.8076A1 1 0 0 1 327.4995 162.8076" transform="matrix(1 0 0 1 0 0)" fill="rgba(184,216,252,0.5)" opacity="1"/><path d="M268.0411 278.0416A1 1 0 0 1 266.0411 278.0416A1 1 0 0 1 268.0411 278.0416" transform="matrix(1 0 0 1 0 0)" fill="rgba(184,216,252,0.19)" opacity="1"/><path d="M209.3827 393.2756A1.8 1.8 0 0 1 205.7827 393.2756A1.8 1.8 0 0 1 209.3827 393.2756" transform="matrix(1 0 0 1 0 0)" fill="rgba(184,216,252,0.19)" opacity="1"/><path d="M149.1244 508.5095A1 1 0 0 1 147.1244 508.5095A1 1 0 0 1 149.1244 508.5095" transform="matrix(1 0 0 1 0 0)" fill="rgba(184,216,252,0.5)" opacity="1"/><path d="M89.666 13.7435A1 1 0 0 1 87.666 13.7435A1 1 0 0 1 89.666 13.7435" transform="matrix(1 0 0 1 0 0)" fill="rgba(184,216,252,0.19)" opacity="1"/><path d="M30.2076 128.9775A1 1 0 0 1 28.2076 128.9775A1 1 0 0 1 30.2076 128.9775" transform="matrix(1 0 0 1 0 0)" fill="rgba(184,216,252,0.19)" opacity="1"/><path d="M1010.7492 244.2114A1 1 0 0 1 1008.7492 244.2114A1 1 0 0 1 1010.7492 244.2114" transform="matrix(1 0 0 1 0 0)" fill="rgba(184,216,252,0.5)" opacity="1"/><path d="M951.2909 359.4454A1 1 0 0 1 949.2909 359.4454A1 1 0 0 1 951.2909 359.4454" transform="matrix(1 0 0 1 0 0)" fill="rgba(184,216,252,0.19)" opacity="1"/><path d="M891.8325 474.6794A1 1 0 0 1 889.8325 474.6794A1 1 0 0 1 891.8325 474.6794" transform="matrix(1 0 0 1 0 0)" fill="rgba(184,216,252,0.19)" opacity="1"/><path d="M833.1741 589.9133A1.8 1.8 0 0 1 829.5741 589.9133A1.8 1.8 0 0 1 833.1741 589.9133" transform="matrix(1 0 0 1 0 0)" fill="rgba(184,216,252,0.5)" opacity="1"/><path d="M772.9157 95.1473A1 1 0 0 1 770.9157 95.1473A1 1 0 0 1 772.9157 95.1473" transform="matrix(1 0 0 1 0 0)" fill="rgba(184,216,252,0.19)" opacity="1"/><path d="M713.4574 210.3813A1 1 0 0 1 711.4574 210.3813A1 1 0 0 1 713.4574 210.3813" transform="matrix(1 0 0 1 0 0)" fill="rgba(184,216,252,0.19)" opacity="1"/><path d="M653.999 325.6153A1 1 0 0 1 651.999 325.6153A1 1 0 0 1 653.999 325.6153" transform="matrix(1 0 0 1 0 0)" fill="rgba(184,216,252,0.5)" opacity="1"/><path d="M594.5406 440.8492A1 1 0 0 1 592.5406 440.8492A1 1 0 0 1 594.5406 440.8492" transform="matrix(1 0 0 1 0 0)" fill="rgba(184,216,252,0.19)" opacity="1"/><path d="M535.0822 556.0832A1 1 0 0 1 533.0822 556.0832A1 1 0 0 1 535.0822 556.0832" transform="matrix(1 0 0 1 0 0)" fill="rgba(184,216,252,0.19)" opacity="1"/><path d="M475.6239 61.3172A1 1 0 0 1 473.6239 61.3172A1 1 0 0 1 475.6239 61.3172" transform="matrix(1 0 0 1 0 0)" fill="rgba(184,216,252,0.5)" opacity="1"/><path d="M416.9655 176.5511A1.8 1.8 0 0 1 413.3655 176.5511A1.8 1.8 0 0 1 416.9655 176.5511" transform="matrix(1 0 0 1 0 0)" fill="rgba(184,216,252,0.19)" opacity="1"/><path d="M356.7071 291.7851A1 1 0 0 1 354.7071 291.7851A1 1 0 0 1 356.7071 291.7851" transform="matrix(1 0 0 1 0 0)" fill="rgba(184,216,252,0.19)" opacity="1"/><path d="M297.2487 407.0191A1 1 0 0 1 295.2487 407.0191A1 1 0 0 1 297.2487 407.0191" transform="matrix(1 0 0 1 0 0)" fill="rgba(184,216,252,0.5)" opacity="1"/><path d="M237.7904 522.253A1 1 0 0 1 235.7904 522.253A1 1 0 0 1 237.7904 522.253" transform="matrix(1 0 0 1 0 0)" fill="rgba(184,216,252,0.19)" opacity="1"/><path d="M178.332 27.487A1 1 0 0 1 176.332 27.487A1 1 0 0 1 178.332 27.487" transform="matrix(1 0 0 1 0 0)" fill="rgba(184,216,252,0.19)" opacity="1"/><path d="M118.8736 142.721A1 1 0 0 1 116.8736 142.721A1 1 0 0 1 118.8736 142.721" transform="matrix(1 0 0 1 0 0)" fill="rgba(184,216,252,0.5)" opacity="1"/><path d="M59.4152 257.9549A1 1 0 0 1 57.4152 257.9549A1 1 0 0 1 59.4152 257.9549" transform="matrix(1 0 0 1 0 0)" fill="rgba(184,216,252,0.19)" opacity="1"/><path d="M1040.7569 373.1889A1.8 1.8 0 0 1 1037.1569 373.1889A1.8 1.8 0 0 1 1040.7569 373.1889" transform="matrix(1 0 0 1 0 0)" fill="rgba(184,216,252,0.19)" opacity="1"/><path d="M980.4985 488.4229A1 1 0 0 1 978.4985 488.4229A1 1 0 0 1 980.4985 488.4229" transform="matrix(1 0 0 1 0 0)" fill="rgba(184,216,252,0.5)" opacity="1"/><path d="M921.0401 603.6568A1 1 0 0 1 919.0401 603.6568A1 1 0 0 1 921.0401 603.6568" transform="matrix(1 0 0 1 0 0)" fill="rgba(184,216,252,0.19)" opacity="1"/><path d="M861.5817 108.8908A1 1 0 0 1 859.5817 108.8908A1 1 0 0 1 861.5817 108.8908" transform="matrix(1 0 0 1 0 0)" fill="rgba(184,216,252,0.19)" opacity="1"/><path d="M802.1234 224.1248A1 1 0 0 1 800.1234 224.1248A1 1 0 0 1 802.1234 224.1248" transform="matrix(1 0 0 1 0 0)" fill="rgba(184,216,252,0.5)" opacity="1"/><path d="M742.665 339.3588A1 1 0 0 1 740.665 339.3588A1 1 0 0 1 742.665 339.3588" transform="matrix(1 0 0 1 0 0)" fill="rgba(184,216,252,0.19)" opacity="1"/><path d="M683.2066 454.5927A1 1 0 0 1 681.2066 454.5927A1 1 0 0 1 683.2066 454.5927" transform="matrix(1 0 0 1 0 0)" fill="rgba(184,216,252,0.19)" opacity="1"/><path d="M624.5482 569.8267A1.8 1.8 0 0 1 620.9482 569.8267A1.8 1.8 0 0 1 624.5482 569.8267" transform="matrix(1 0 0 1 0 0)" fill="rgba(184,216,252,0.5)" opacity="1"/><path d="M564.2899 75.0607A1 1 0 0 1 562.2899 75.0607A1 1 0 0 1 564.2899 75.0607" transform="matrix(1 0 0 1 0 0)" fill="rgba(184,216,252,0.19)" opacity="1"/><path d="M504.8315 190.2946A1 1 0 0 1 502.8315 190.2946A1 1 0 0 1 504.8315 190.2946" transform="matrix(1 0 0 1 0 0)" fill="rgba(184,216,252,0.19)" opacity="1"/><path d="M445.3731 305.5286A1 1 0 0 1 443.3731 305.5286A1 1 0 0 1 445.3731 305.5286" transform="matrix(1 0 0 1 0 0)" fill="rgba(184,216,252,0.5)" opacity="1"/><path d="M385.9147 420.7626A1 1 0 0 1 383.9147 420.7626A1 1 0 0 1 385.9147 420.7626" transform="matrix(1 0 0 1 0 0)" fill="rgba(184,216,252,0.19)" opacity="1"/><path d="M326.4564 535.9965A1 1 0 0 1 324.4564 535.9965A1 1 0 0 1 326.4564 535.9965" transform="matrix(1 0 0 1 0 0)" fill="rgba(184,216,252,0.19)" opacity="1"/><path d="M266.998 41.2305A1 1 0 0 1 264.998 41.2305A1 1 0 0 1 266.998 41.2305" transform="matrix(1 0 0 1 0 0)" fill="rgba(184,216,252,0.5)" opacity="1"/><path d="M208.3396 156.4645A1.8 1.8 0 0 1 204.7396 156.4645A1.8 1.8 0 0 1 208.3396 156.4645" transform="matrix(1 0 0 1 0 0)" fill="rgba(184,216,252,0.19)" opacity="1"/><path d="M148.0812 271.6984A1 1 0 0 1 146.0812 271.6984A1 1 0 0 1 148.0812 271.6984" transform="matrix(1 0 0 1 0 0)" fill="rgba(184,216,252,0.19)" opacity="1"/><path d="M88.6229 386.9324A1 1 0 0 1 86.6229 386.9324A1 1 0 0 1 88.6229 386.9324" transform="matrix(1 0 0 1 0 0)" fill="rgba(184,216,252,0.5)" opacity="1"/><path d="M29.1645 502.1664A1 1 0 0 1 27.1645 502.1664A1 1 0 0 1 29.1645 502.1664" transform="matrix(1 0 0 1 0 0)" fill="rgba(184,216,252,0.19)" opacity="1"/><path d="M1009.7061 7.4003A1 1 0 0 1 1007.7061 7.4003A1 1 0 0 1 1009.7061 7.4003" transform="matrix(1 0 0 1 0 0)" fill="rgba(184,216,252,0.19)" opacity="1"/><path d="M950.2477 122.6343A1 1 0 0 1 948.2477 122.6343A1 1 0 0 1 950.2477 122.6343" transform="matrix(1 0 0 1 0 0)" fill="rgba(184,216,252,0.5)" opacity="1"/><path d="M890.7894 237.8683A1 1 0 0 1 888.7894 237.8683A1 1 0 0 1 890.7894 237.8683" transform="matrix(1 0 0 1 0 0)" fill="rgba(184,216,252,0.19)" opacity="1"/><path d="M832.131 353.1023A1.8 1.8 0 0 1 828.531 353.1023A1.8 1.8 0 0 1 832.131 353.1023" transform="matrix(1 0 0 1 0 0)" fill="rgba(184,216,252,0.19)" opacity="1"/><path d="M771.8726 468.3362A1 1 0 0 1 769.8726 468.3362A1 1 0 0 1 771.8726 468.3362" transform="matrix(1 0 0 1 0 0)" fill="rgba(184,216,252,0.5)" opacity="1"/><path d="M712.4142 583.5702A1 1 0 0 1 710.4142 583.5702A1 1 0 0 1 712.4142 583.5702" transform="matrix(1 0 0 1 0 0)" fill="rgba(184,216,252,0.19)" opacity="1"/><path d="M652.9559 88.8042A1 1 0 0 1 650.9559 88.8042A1 1 0 0 1 652.9559 88.8042" transform="matrix(1 0 0 1 0 0)" fill="rgba(184,216,252,0.19)" opacity="1"/><path d="M593.4975 204.0381A1 1 0 0 1 591.4975 204.0381A1 1 0 0 1 593.4975 204.0381" transform="matrix(1 0 0 1 0 0)" fill="rgba(184,216,252,0.5)" opacity="1"/><path d="M534.0391 319.2721A1 1 0 0 1 532.0391 319.2721A1 1 0 0 1 534.0391 319.2721" transform="matrix(1 0 0 1 0 0)" fill="rgba(184,216,252,0.19)" opacity="1"/><path d="M474.5807 434.5061A1 1 0 0 1 472.5807 434.5061A1 1 0 0 1 474.5807 434.5061" transform="matrix(1 0 0 1 0 0)" fill="rgba(184,216,252,0.19)" opacity="1"/><path d="M415.9224 549.74A1.8 1.8 0 0 1 412.3224 549.74A1.8 1.8 0 0 1 415.9224 549.74" transform="matrix(1 0 0 1 0 0)" fill="rgba(184,216,252,0.5)" opacity="1"/><path d="M355.664 54.974A1 1 0 0 1 353.664 54.974A1 1 0 0 1 355.664 54.974" transform="matrix(1 0 0 1 0 0)" fill="rgba(184,216,252,0.19)" opacity="1"/><path d="M296.2056 170.208A1 1 0 0 1 294.2056 170.208A1 1 0 0 1 296.2056 170.208" transform="matrix(1 0 0 1 0 0)" fill="rgba(184,216,252,0.19)" opacity="1"/><path d="M236.7472 285.4419A1 1 0 0 1 234.7472 285.4419A1 1 0 0 1 236.7472 285.4419" transform="matrix(1 0 0 1 0 0)" fill="rgba(184,216,252,0.5)" opacity="1"/><path d="M177.2889 400.6759A1 1 0 0 1 175.2889 400.6759A1 1 0 0 1 177.2889 400.6759" transform="matrix(1 0 0 1 0 0)" fill="rgba(184,216,252,0.19)" opacity="1"/><path d="M117.8305 515.9099A1 1 0 0 1 115.8305 515.9099A1 1 0 0 1 117.8305 515.9099" transform="matrix(1 0 0 1 0 0)" fill="rgba(184,216,252,0.19)" opacity="1"/><path d="M58.3721 21.1438A1 1 0 0 1 56.3721 21.1438A1 1 0 0 1 58.3721 21.1438" transform="matrix(1 0 0 1 0 0)" fill="rgba(184,216,252,0.5)" opacity="1"/><path d="M1039.7137 136.3778A1.8 1.8 0 0 1 1036.1137 136.3778A1.8 1.8 0 0 1 1039.7137 136.3778" transform="matrix(1 0 0 1 0 0)" fill="rgba(184,216,252,0.19)" opacity="1"/><path d="M979.4554 251.6118A1 1 0 0 1 977.4554 251.6118A1 1 0 0 1 979.4554 251.6118" transform="matrix(1 0 0 1 0 0)" fill="rgba(184,216,252,0.19)" opacity="1"/><path d="M919.997 366.8458A1 1 0 0 1 917.997 366.8458A1 1 0 0 1 919.997 366.8458" transform="matrix(1 0 0 1 0 0)" fill="rgba(184,216,252,0.5)" opacity="1"/><path d="M860.5386 482.0797A1 1 0 0 1 858.5386 482.0797A1 1 0 0 1 860.5386 482.0797" transform="matrix(1 0 0 1 0 0)" fill="rgba(184,216,252,0.19)" opacity="1"/><path d="M801.0802 597.3137A1 1 0 0 1 799.0802 597.3137A1 1 0 0 1 801.0802 597.3137" transform="matrix(1 0 0 1 0 0)" fill="rgba(184,216,252,0.19)" opacity="1"/><path d="M741.6219 102.5477A1 1 0 0 1 739.6219 102.5477A1 1 0 0 1 741.6219 102.5477" transform="matrix(1 0 0 1 0 0)" fill="rgba(184,216,252,0.5)" opacity="1"/><path d="M682.1635 217.7816A1 1 0 0 1 680.1635 217.7816A1 1 0 0 1 682.1635 217.7816" transform="matrix(1 0 0 1 0 0)" fill="rgba(184,216,252,0.19)" opacity="1"/><path d="M623.5051 333.0156A1.8 1.8 0 0 1 619.9051 333.0156A1.8 1.8 0 0 1 623.5051 333.0156" transform="matrix(1 0 0 1 0 0)" fill="rgba(184,216,252,0.19)" opacity="1"/><path d="M563.2467 448.2496A1 1 0 0 1 561.2467 448.2496A1 1 0 0 1 563.2467 448.2496" transform="matrix(1 0 0 1 0 0)" fill="rgba(184,216,252,0.5)" opacity="1"/><path d="M503.7884 563.4835A1 1 0 0 1 501.7884 563.4835A1 1 0 0 1 503.7884 563.4835" transform="matrix(1 0 0 1 0 0)" fill="rgba(184,216,252,0.19)" opacity="1"/><path d="M444.33 68.7175A1 1 0 0 1 442.33 68.7175A1 1 0 0 1 444.33 68.7175" transform="matrix(1 0 0 1 0 0)" fill="rgba(184,216,252,0.19)" opacity="1"/><path d="M384.8716 183.9515A1 1 0 0 1 382.8716 183.9515A1 1 0 0 1 384.8716 183.9515" transform="matrix(1 0 0 1 0 0)" fill="rgba(184,216,252,0.5)" opacity="1"/><path d="M325.4132 299.1854A1 1 0 0 1 323.4132 299.1854A1 1 0 0 1 325.4132 299.1854" transform="matrix(1 0 0 1 0 0)" fill="rgba(184,216,252,0.19)" opacity="1"/><path d="M265.9549 414.4194A1 1 0 0 1 263.9549 414.4194A1 1 0 0 1 265.9549 414.4194" transform="matrix(1 0 0 1 0 0)" fill="rgba(184,216,252,0.19)" opacity="1"/><path d="M207.2965 529.6534A1.8 1.8 0 0 1 203.6965 529.6534A1.8 1.8 0 0 1 207.2965 529.6534" transform="matrix(1 0 0 1 0 0)" fill="rgba(184,216,252,0.5)" opacity="1"/><path d="M147.0381 34.8873A1 1 0 0 1 145.0381 34.8873A1 1 0 0 1 147.0381 34.8873" transform="matrix(1 0 0 1 0 0)" fill="rgba(184,216,252,0.19)" opacity="1"/><path d="M87.5797 150.1213A1 1 0 0 1 85.5797 150.1213A1 1 0 0 1 87.5797 150.1213" transform="matrix(1 0 0 1 0 0)" fill="rgba(184,216,252,0.19)" opacity="1"/><path d="M28.1214 265.3553A1 1 0 0 1 26.1214 265.3553A1 1 0 0 1 28.1214 265.3553" transform="matrix(1 0 0 1 0 0)" fill="rgba(184,216,252,0.5)" opacity="1"/><path d="M1008.663 380.5893A1 1 0 0 1 1006.663 380.5893A1 1 0 0 1 1008.663 380.5893" transform="matrix(1 0 0 1 0 0)" fill="rgba(184,216,252,0.19)" opacity="1"/><path d="M949.2046 495.8232A1 1 0 0 1 947.2046 495.8232A1 1 0 0 1 949.2046 495.8232" transform="matrix(1 0 0 1 0 0)" fill="rgba(184,216,252,0.19)" opacity="1"/><text x="38" y="46" transform="matrix(1 0 0 1 0 0)" fill="#eaf2ff" opacity="1" text-anchor="start" dominant-baseline="central" style="font:650 26px system-ui,&quot;Microsoft YaHei&quot;,sans-serif">长征十号乙 · 一级海上网系回收</text><text x="38" y="86" transform="matrix(1 0 0 1 0 0)" fill="#ffc58a" opacity="1" text-anchor="start" dominant-baseline="central" style="font:600 20px system-ui,&quot;Microsoft YaHei&quot;,sans-serif">03 / 07  下降与气动作用</text><path d="M770 116L986 116Q1002 116 1002 132L1002 252Q1002 268 986 268L770 268Q754 268 754 252L754 132Q754 116 770 116Z" transform="matrix(1 0 0 1 0 0)" fill="#102e43" opacity="1"/><path d="M770 116L986 116Q1002 116 1002 132L1002 252Q1002 268 986 268L770 268Q754 268 754 252L754 132Q754 116 770 116Z" transform="matrix(1 0 0 1 0 0)" fill="none" stroke="#527186" stroke-width="1.5" stroke-linecap="round" stroke-linejoin="round" opacity="1"/><path d="M-18 -27L18 -27Q24 -27 24 -21L24 21Q24 27 18 27L-18 27Q-24 27 -24 21L-24 -21Q-24 -27 -18 -27Z" transform="matrix(0.3332 0.0675 -0.0675 0.3332 877 173)" fill="#e7bd73" opacity="1"/><path d="M-18 -27L18 -27Q24 -27 24 -21L24 21Q24 27 18 27L-18 27Q-24 27 -24 21L-24 -21Q-24 -27 -18 -27Z" transform="matrix(0.3332 0.0675 -0.0675 0.3332 877 173)" fill="none" stroke="#fff0c6" stroke-width="1.5" stroke-linecap="round" stroke-linejoin="round" opacity="1"/><path d="M11 0A11 11 0 0 1 -11 0A11 11 0 0 1 11 0" transform="matrix(0.3332 0.0675 -0.0675 0.3332 877 173)" fill="#688b9e" opacity="1"/><path d="M11 0A11 11 0 0 1 -11 0A11 11 0 0 1 11 0" transform="matrix(0.3332 0.0675 -0.0675 0.3332 877 173)" fill="none" stroke="#f8daa7" stroke-width="2" stroke-linecap="round" stroke-linejoin="round" opacity="1"/><path d="M-15 -20A2 2 0 0 1 -19 -20A2 2 0 0 1 -15 -20" transform="matrix(0.3332 0.0675 -0.0675 0.3332 877 173)" fill="#fff2c9" opacity="1"/><path d="M19 -20A2 2 0 0 1 15 -20A2 2 0 0 1 19 -20" transform="matrix(0.3332 0.0675 -0.0675 0.3332 877 173)" fill="#fff2c9" opacity="1"/><path d="M-15 20A2 2 0 0 1 -19 20A2 2 0 0 1 -15 20" transform="matrix(0.3332 0.0675 -0.0675 0.3332 877 173)" fill="#fff2c9" opacity="1"/><path d="M19 20A2 2 0 0 1 15 20A2 2 0 0 1 19 20" transform="matrix(0.3332 0.0675 -0.0675 0.3332 877 173)" fill="#fff2c9" opacity="1"/><path d="M-7 12L7 12Q9 12 9 14L9 19Q9 21 7 21L-7 21Q-9 21 -9 19L-9 14Q-9 12 -7 12Z" transform="matrix(0.3332 0.0675 -0.0675 0.3332 877 173)" fill="#80653d" opacity="1"/><path d="M-18 -21L18 -21" transform="matrix(0.3332 0.0675 -0.0675 0.3332 877 173)" fill="none" stroke="#b18849" stroke-width="2" stroke-linecap="round" stroke-linejoin="round" opacity="1"/><path d="M-24 0L-40 0" transform="matrix(0.3332 0.0675 -0.0675 0.3332 877 173)" fill="none" stroke="#e5ddb4" stroke-width="4" stroke-linecap="round" stroke-linejoin="round" opacity="1"/><path d="M24 0L40 0" transform="matrix(0.3332 0.0675 -0.0675 0.3332 877 173)" fill="none" stroke="#e5ddb4" stroke-width="4" stroke-linecap="round" stroke-linejoin="round" opacity="1"/><path d="M-118 -30L-42 -30Q-40 -30 -40 -28L-40 28Q-40 30 -42 30L-118 30Q-120 30 -120 28L-120 -28Q-120 -30 -118 -30Z" transform="matrix(0.3332 0.0675 -0.0675 0.3332 877 173)" fill="#306999" opacity="1"/><path d="M-118 -30L-42 -30Q-40 -30 -40 -28L-40 28Q-40 30 -42 30L-118 30Q-120 30 -120 28L-120 -28Q-120 -30 -118 -30Z" transform="matrix(0.3332 0.0675 -0.0675 0.3332 877 173)" fill="none" stroke="#81bfda" stroke-width="1.5" stroke-linecap="round" stroke-linejoin="round" opacity="1"/><path d="M-104 -30L-104 30" transform="matrix(0.3332 0.0675 -0.0675 0.3332 877 173)" fill="none" stroke="#8dcde855" stroke-width="1" stroke-linecap="round" stroke-linejoin="round" opacity="1"/><path d="M-88 -30L-88 30" transform="matrix(0.3332 0.0675 -0.0675 0.3332 877 173)" fill="none" stroke="#8dcde855" stroke-width="1" stroke-linecap="round" stroke-linejoin="round" opacity="1"/><path d="M-72 -30L-72 30" transform="matrix(0.3332 0.0675 -0.0675 0.3332 877 173)" fill="none" stroke="#8dcde855" stroke-width="1" stroke-linecap="round" stroke-linejoin="round" opacity="1"/><path d="M-56 -30L-56 30" transform="matrix(0.3332 0.0675 -0.0675 0.3332 877 173)" fill="none" stroke="#8dcde855" stroke-width="1" stroke-linecap="round" stroke-linejoin="round" opacity="1"/><path d="M-120 -15L-40 -15" transform="matrix(0.3332 0.0675 -0.0675 0.3332 877 173)" fill="none" stroke="#8dcde855" stroke-width="1" stroke-linecap="round" stroke-linejoin="round" opacity="1"/><path d="M-120 0L-40 0" transform="matrix(0.3332 0.0675 -0.0675 0.3332 877 173)" fill="none" stroke="#8dcde855" stroke-width="1" stroke-linecap="round" stroke-linejoin="round" opacity="1"/><path d="M-120 15L-40 15" transform="matrix(0.3332 0.0675 -0.0675 0.3332 877 173)" fill="none" stroke="#8dcde855" stroke-width="1" stroke-linecap="round" stroke-linejoin="round" opacity="1"/><path d="M42 -30L118 -30Q120 -30 120 -28L120 28Q120 30 118 30L42 30Q40 30 40 28L40 -28Q40 -30 42 -30Z" transform="matrix(0.3332 0.0675 -0.0675 0.3332 877 173)" fill="#306999" opacity="1"/><path d="M42 -30L118 -30Q120 -30 120 -28L120 28Q120 30 118 30L42 30Q40 30 40 28L40 -28Q40 -30 42 -30Z" transform="matrix(0.3332 0.0675 -0.0675 0.3332 877 173)" fill="none" stroke="#81bfda" stroke-width="1.5" stroke-linecap="round" stroke-linejoin="round" opacity="1"/><path d="M56 -30L56 30" transform="matrix(0.3332 0.0675 -0.0675 0.3332 877 173)" fill="none" stroke="#8dcde855" stroke-width="1" stroke-linecap="round" stroke-linejoin="round" opacity="1"/><path d="M72 -30L72 30" transform="matrix(0.3332 0.0675 -0.0675 0.3332 877 173)" fill="none" stroke="#8dcde855" stroke-width="1" stroke-linecap="round" stroke-linejoin="round" opacity="1"/><path d="M88 -30L88 30" transform="matrix(0.3332 0.0675 -0.0675 0.3332 877 173)" fill="none" stroke="#8dcde855" stroke-width="1" stroke-linecap="round" stroke-linejoin="round" opacity="1"/><path d="M104 -30L104 30" transform="matrix(0.3332 0.0675 -0.0675 0.3332 877 173)" fill="none" stroke="#8dcde855" stroke-width="1" stroke-linecap="round" stroke-linejoin="round" opacity="1"/><path d="M40 -15L120 -15" transform="matrix(0.3332 0.0675 -0.0675 0.3332 877 173)" fill="none" stroke="#8dcde855" stroke-width="1" stroke-linecap="round" stroke-linejoin="round" opacity="1"/><path d="M40 0L120 0" transform="matrix(0.3332 0.0675 -0.0675 0.3332 877 173)" fill="none" stroke="#8dcde855" stroke-width="1" stroke-linecap="round" stroke-linejoin="round" opacity="1"/><path d="M40 15L120 15" transform="matrix(0.3332 0.0675 -0.0675 0.3332 877 173)" fill="none" stroke="#8dcde855" stroke-width="1" stroke-linecap="round" stroke-linejoin="round" opacity="1"/><path d="M0 -27L12 -50" transform="matrix(0.3332 0.0675 -0.0675 0.3332 877 173)" fill="none" stroke="#f2dfa3" stroke-width="3" stroke-linecap="round" stroke-linejoin="round" opacity="1"/><path d="M16 -52A4 4 0 0 1 8 -52A4 4 0 0 1 16 -52" transform="matrix(0.3332 0.0675 -0.0675 0.3332 877 173)" fill="#ffc58a" opacity="1"/><text x="878" y="224" transform="matrix(1 0 0 1 0 0)" fill="#71ead0" opacity="1" text-anchor="middle" dominant-baseline="central" style="font:400 17px system-ui,&quot;Microsoft YaHei&quot;,sans-serif">二级 / 卫星主线</text><text x="878" y="250" transform="matrix(1 0 0 1 0 0)" fill="#93abc5" opacity="1" text-anchor="middle" dominant-baseline="central" style="font:400 15px system-ui,&quot;Microsoft YaHei&quot;,sans-serif">仍在继续飞行</text><path d="M-17 -178L17 -178Q22 -178 22 -173L22 -5Q22 0 17 0L-17 0Q-22 0 -22 -5L-22 -173Q-22 -178 -17 -178Z" transform="matrix(1.1264 0.0903 -0.0903 1.1264 464 416.75)" fill="url(#spaceflight-export-gradient-3)" opacity="1"/><path d="M-17 -178L17 -178Q22 -178 22 -173L22 -5Q22 0 17 0L-17 0Q-22 0 -22 -5L-22 -173Q-22 -178 -17 -178Z" transform="matrix(1.1264 0.0903 -0.0903 1.1264 464 416.75)" fill="none" stroke="#97adbe" stroke-width="1.5" stroke-linecap="round" stroke-linejoin="round" opacity="1"/><path d="M-20 -14L20 -14Q22 -14 22 -12L22 -2Q22 0 20 0L-20 0Q-22 0 -22 -2L-22 -12Q-22 -14 -20 -14Z" transform="matrix(1.1264 0.0903 -0.0903 1.1264 464 416.75)" fill="#344c61" opacity="1"/><path d="M-22 -108L22 -108Q22 -108 22 -108L22 -99Q22 -99 22 -99L-22 -99Q-22 -99 -22 -99L-22 -108Q-22 -108 -22 -108Z" transform="matrix(1.1264 0.0903 -0.0903 1.1264 464 416.75)" fill="#c95247" opacity="1"/><path d="M-21 -165L21 -165" transform="matrix(1.1264 0.0903 -0.0903 1.1264 464 416.75)" fill="none" stroke="#91adbd" stroke-width="1" stroke-linecap="round" stroke-linejoin="round" opacity="1"/><path d="M-21 -128L21 -128" transform="matrix(1.1264 0.0903 -0.0903 1.1264 464 416.75)" fill="none" stroke="#91adbd" stroke-width="1" stroke-linecap="round" stroke-linejoin="round" opacity="1"/><path d="M-21 -35L21 -35" transform="matrix(1.1264 0.0903 -0.0903 1.1264 464 416.75)" fill="none" stroke="#91adbd" stroke-width="1" stroke-linecap="round" stroke-linejoin="round" opacity="1"/><path d="M13 -155L13 -23" transform="matrix(1.1264 0.0903 -0.0903 1.1264 464 416.75)" fill="none" stroke="#94adbd" stroke-width="2" stroke-linecap="round" stroke-linejoin="round" opacity="1"/><text x="0" y="-74" transform="matrix(1.1264 0.0903 -0.0903 1.1264 464 416.75)" fill="#314f65" opacity="1" text-anchor="middle" dominant-baseline="central" style="font:700 11px system-ui,&quot;Microsoft YaHei&quot;,sans-serif">CZ-10B</text><path d="M-34 -156L-28 -156Q-26 -156 -26 -154L-26 -140Q-26 -138 -28 -138L-34 -138Q-36 -138 -36 -140L-36 -154Q-36 -156 -34 -156Z" transform="matrix(1.1264 0.0903 -0.0903 1.1264 464 416.75)" fill="#49728d" opacity="1"/><path d="M-34 -156L-28 -156Q-26 -156 -26 -154L-26 -140Q-26 -138 -28 -138L-34 -138Q-36 -138 -36 -140L-36 -154Q-36 -156 -34 -156Z" transform="matrix(1.1264 0.0903 -0.0903 1.1264 464 416.75)" fill="none" stroke="#81bfda" stroke-width="1.5" stroke-linecap="round" stroke-linejoin="round" opacity="1"/><path d="M-34 -156L-34 -138" transform="matrix(1.1264 0.0903 -0.0903 1.1264 464 416.75)" fill="none" stroke="#8dcde855" stroke-width="1" stroke-linecap="round" stroke-linejoin="round" opacity="1"/><path d="M-32 -156L-32 -138" transform="matrix(1.1264 0.0903 -0.0903 1.1264 464 416.75)" fill="none" stroke="#8dcde855" stroke-width="1" stroke-linecap="round" stroke-linejoin="round" opacity="1"/><path d="M-30 -156L-30 -138" transform="matrix(1.1264 0.0903 -0.0903 1.1264 464 416.75)" fill="none" stroke="#8dcde855" stroke-width="1" stroke-linecap="round" stroke-linejoin="round" opacity="1"/><path d="M-28 -156L-28 -138" transform="matrix(1.1264 0.0903 -0.0903 1.1264 464 416.75)" fill="none" stroke="#8dcde855" stroke-width="1" stroke-linecap="round" stroke-linejoin="round" opacity="1"/><path d="M-36 -151.5L-26 -151.5" transform="matrix(1.1264 0.0903 -0.0903 1.1264 464 416.75)" fill="none" stroke="#8dcde855" stroke-width="1" stroke-linecap="round" stroke-linejoin="round" opacity="1"/><path d="M-36 -147L-26 -147" transform="matrix(1.1264 0.0903 -0.0903 1.1264 464 416.75)" fill="none" stroke="#8dcde855" stroke-width="1" stroke-linecap="round" stroke-linejoin="round" opacity="1"/><path d="M-36 -142.5L-26 -142.5" transform="matrix(1.1264 0.0903 -0.0903 1.1264 464 416.75)" fill="none" stroke="#8dcde855" stroke-width="1" stroke-linecap="round" stroke-linejoin="round" opacity="1"/><path d="M-20 -138L-25 -138" transform="matrix(1.1264 0.0903 -0.0903 1.1264 464 416.75)" fill="none" stroke="#f7d29b" stroke-width="4" stroke-linecap="round" stroke-linejoin="round" opacity="1"/><path d="M28 -156L34 -156Q36 -156 36 -154L36 -140Q36 -138 34 -138L28 -138Q26 -138 26 -140L26 -154Q26 -156 28 -156Z" transform="matrix(1.1264 0.0903 -0.0903 1.1264 464 416.75)" fill="#49728d" opacity="1"/><path d="M28 -156L34 -156Q36 -156 36 -154L36 -140Q36 -138 34 -138L28 -138Q26 -138 26 -140L26 -154Q26 -156 28 -156Z" transform="matrix(1.1264 0.0903 -0.0903 1.1264 464 416.75)" fill="none" stroke="#81bfda" stroke-width="1.5" stroke-linecap="round" stroke-linejoin="round" opacity="1"/><path d="M28 -156L28 -138" transform="matrix(1.1264 0.0903 -0.0903 1.1264 464 416.75)" fill="none" stroke="#8dcde855" stroke-width="1" stroke-linecap="round" stroke-linejoin="round" opacity="1"/><path d="M30 -156L30 -138" transform="matrix(1.1264 0.0903 -0.0903 1.1264 464 416.75)" fill="none" stroke="#8dcde855" stroke-width="1" stroke-linecap="round" stroke-linejoin="round" opacity="1"/><path d="M32 -156L32 -138" transform="matrix(1.1264 0.0903 -0.0903 1.1264 464 416.75)" fill="none" stroke="#8dcde855" stroke-width="1" stroke-linecap="round" stroke-linejoin="round" opacity="1"/><path d="M34 -156L34 -138" transform="matrix(1.1264 0.0903 -0.0903 1.1264 464 416.75)" fill="none" stroke="#8dcde855" stroke-width="1" stroke-linecap="round" stroke-linejoin="round" opacity="1"/><path d="M26 -151.5L36 -151.5" transform="matrix(1.1264 0.0903 -0.0903 1.1264 464 416.75)" fill="none" stroke="#8dcde855" stroke-width="1" stroke-linecap="round" stroke-linejoin="round" opacity="1"/><path d="M26 -147L36 -147" transform="matrix(1.1264 0.0903 -0.0903 1.1264 464 416.75)" fill="none" stroke="#8dcde855" stroke-width="1" stroke-linecap="round" stroke-linejoin="round" opacity="1"/><path d="M26 -142.5L36 -142.5" transform="matrix(1.1264 0.0903 -0.0903 1.1264 464 416.75)" fill="none" stroke="#8dcde855" stroke-width="1" stroke-linecap="round" stroke-linejoin="round" opacity="1"/><path d="M20 -138L25 -138" transform="matrix(1.1264 0.0903 -0.0903 1.1264 464 416.75)" fill="none" stroke="#f7d29b" stroke-width="4" stroke-linecap="round" stroke-linejoin="round" opacity="1"/><path d="M-16 0L-18 9L-6 9L-8 0Z" transform="matrix(1.1264 0.0903 -0.0903 1.1264 464 416.75)" fill="#758999" opacity="1"/><path d="M-4 0L-6 9L6 9L4 0Z" transform="matrix(1.1264 0.0903 -0.0903 1.1264 464 416.75)" fill="#758999" opacity="1"/><path d="M8 0L6 9L18 9L16 0Z" transform="matrix(1.1264 0.0903 -0.0903 1.1264 464 416.75)" fill="#758999" opacity="1"/><path d="M327 440L327 360" transform="matrix(1 0 0 1 0 0)" fill="none" stroke="#76cddd" stroke-width="3" stroke-linecap="round" stroke-linejoin="round" opacity="1"/><path d="M327 360L331.7846 369.9049L322.2154 369.9049Z" transform="matrix(1 0 0 1 0 0)" fill="#76cddd" opacity="1"/><path d="M357 440L357 360" transform="matrix(1 0 0 1 0 0)" fill="none" stroke="#76cddd" stroke-width="3" stroke-linecap="round" stroke-linejoin="round" opacity="1"/><path d="M357 360L361.7846 369.9049L352.2154 369.9049Z" transform="matrix(1 0 0 1 0 0)" fill="#76cddd" opacity="1"/><path d="M585 440L585 360" transform="matrix(1 0 0 1 0 0)" fill="none" stroke="#76cddd" stroke-width="3" stroke-linecap="round" stroke-linejoin="round" opacity="1"/><path d="M585 360L589.7846 369.9049L580.2154 369.9049Z" transform="matrix(1 0 0 1 0 0)" fill="#76cddd" opacity="1"/><path d="M615 440L615 360" transform="matrix(1 0 0 1 0 0)" fill="none" stroke="#76cddd" stroke-width="3" stroke-linecap="round" stroke-linejoin="round" opacity="1"/><path d="M615 360L619.7846 369.9049L610.2154 369.9049Z" transform="matrix(1 0 0 1 0 0)" fill="#76cddd" opacity="1"/><path d="M665 223L665 338" transform="matrix(1 0 0 1 0 0)" fill="none" stroke="#ffc58a" stroke-width="3" stroke-linecap="round" stroke-linejoin="round" opacity="1"/><path d="M665 338L660.2154 328.0951L669.7846 328.0951Z" transform="matrix(1 0 0 1 0 0)" fill="#ffc58a" opacity="1"/><text x="679" y="338" transform="matrix(1 0 0 1 0 0)" fill="#ffc58a" opacity="1" text-anchor="start" dominant-baseline="central" style="font:400 17px system-ui,&quot;Microsoft YaHei&quot;,sans-serif">下降</text><path d="M345.47 473L508.53 473Q526.53 473 526.53 491L526.53 491Q526.53 509 508.53 509L345.47 509Q327.47 509 327.47 491L327.47 491Q327.47 473 345.47 473Z" transform="matrix(1 0 0 1 0 0)" fill="#132b41" opacity="1"/><path d="M345.47 473L508.53 473Q526.53 473 526.53 491L526.53 491Q526.53 509 508.53 509L345.47 509Q327.47 509 327.47 491L327.47 491Q327.47 473 345.47 473Z" transform="matrix(1 0 0 1 0 0)" fill="none" stroke="#71ead0" stroke-width="1.5" stroke-linecap="round" stroke-linejoin="round" opacity="1"/><text x="427" y="491" transform="matrix(1 0 0 1 0 0)" fill="#71ead0" opacity="1" text-anchor="middle" dominant-baseline="central" style="font:500 17px system-ui,&quot;Microsoft YaHei&quot;,sans-serif">稀薄空气 → 更稠密空气</text><text x="59" y="149" transform="matrix(1 0 0 1 0 0)" fill="#93abc5" opacity="1" text-anchor="start" dominant-baseline="central" style="font:400 17px system-ui,&quot;Microsoft YaHei&quot;,sans-serif">箭头区分空气作用与运动方向</text><text x="38" y="550" transform="matrix(1 0 0 1 0 0)" fill="#93abc5" opacity="1" text-anchor="start" dominant-baseline="central" style="font:400 17px system-ui,&quot;Microsoft YaHei&quot;,sans-serif">动作与距离经过教学压缩；捕获结构参考公开资料，非工程尺寸。</text><text x="30" y="586" transform="matrix(1 0 0 1 0 0)" fill="#90a9be" opacity="1" text-anchor="start" dominant-baseline="central" style="font:400 14px system-ui,&quot;Microsoft YaHei&quot;,sans-serif">原创结构示意 · 尺寸、距离与时间不按真实比例</text></g></svg>