<?xml version="1.0" encoding="UTF-8"?>
<svg id="spaceflight-export" aria-label="猎鹰9号 · 载人龙 · ISS · 变轨与交会" viewBox="0 0 1040 610" role="img" xmlns="http://www.w3.org/2000/svg" width="1040" height="610"><title>猎鹰9号 · 载人龙 · ISS · 变轨与交会</title><desc>MathPhysics 原创 SVG。可编辑的路径、文字与渐变；图形不按真实比例，演示不是飞行遥测。</desc><defs><linearGradient id="spaceflight-export-gradient-1" gradientUnits="userSpaceOnUse" x1="0" y1="0" x2="0" y2="610"><stop offset="0" stop-color="#071120"/><stop offset="0.65" stop-color="#102642"/><stop offset="1" stop-color="#123851"/></linearGradient><clipPath id="spaceflight-export-clip-2" clipPathUnits="userSpaceOnUse"><path d="M28 106L694 106Q694 106 694 106L694 528Q694 528 694 528L28 528Q28 528 28 528L28 106Q28 106 28 106Z" transform="matrix(1 0 0 1 0 0)"/></clipPath><radialGradient id="spaceflight-export-gradient-3" gradientUnits="userSpaceOnUse" fx="274" fy="251" fr="0" cx="330" cy="321" r="175"><stop offset="0" stop-color="#357caa"/><stop offset="1" stop-color="#122e55"/></radialGradient><clipPath id="spaceflight-export-clip-4" clipPathUnits="userSpaceOnUse"><path d="M505 321A175 175 0 0 1 155 321A175 175 0 0 1 505 321" transform="matrix(1 0 0 1 0 0)"/></clipPath><linearGradient id="spaceflight-export-gradient-5" gradientUnits="userSpaceOnUse" x1="-31" y1="0" x2="31" y2="0"><stop offset="0" stop-color="#87a6bf"/><stop offset="0.28" stop-color="#f8fcff"/><stop offset="0.7" stop-color="#dceaf0"/><stop offset="1" stop-color="#90aebe"/></linearGradient></defs><g data-vector-layer="illustration"><path d="M0 0L1040 0Q1040 0 1040 0L1040 610Q1040 610 1040 610L0 610Q0 610 0 610L0 0Q0 0 0 0Z" transform="matrix(1 0 0 1 0 0)" fill="url(#spaceflight-export-gradient-1)" opacity="1"/><path d="M1.8 0A1.8 1.8 0 0 1 -1.8 0A1.8 1.8 0 0 1 1.8 0" transform="matrix(1 0 0 1 0 0)" fill="rgba(184,216,252,0.5)" opacity="1"/><path d="M981.5416 115.234A1 1 0 0 1 979.5416 115.234A1 1 0 0 1 981.5416 115.234" transform="matrix(1 0 0 1 0 0)" fill="rgba(184,216,252,0.19)" opacity="1"/><path d="M922.0832 230.4679A1 1 0 0 1 920.0832 230.4679A1 1 0 0 1 922.0832 230.4679" transform="matrix(1 0 0 1 0 0)" fill="rgba(184,216,252,0.19)" opacity="1"/><path d="M862.6249 345.7019A1 1 0 0 1 860.6249 345.7019A1 1 0 0 1 862.6249 345.7019" transform="matrix(1 0 0 1 0 0)" fill="rgba(184,216,252,0.5)" opacity="1"/><path d="M803.1665 460.9359A1 1 0 0 1 801.1665 460.9359A1 1 0 0 1 803.1665 460.9359" transform="matrix(1 0 0 1 0 0)" fill="rgba(184,216,252,0.19)" opacity="1"/><path d="M743.7081 576.1698A1 1 0 0 1 741.7081 576.1698A1 1 0 0 1 743.7081 576.1698" transform="matrix(1 0 0 1 0 0)" fill="rgba(184,216,252,0.19)" opacity="1"/><path d="M684.2497 81.4038A1 1 0 0 1 682.2497 81.4038A1 1 0 0 1 684.2497 81.4038" transform="matrix(1 0 0 1 0 0)" fill="rgba(184,216,252,0.5)" opacity="1"/><path d="M625.5914 196.6378A1.8 1.8 0 0 1 621.9914 196.6378A1.8 1.8 0 0 1 625.5914 196.6378" transform="matrix(1 0 0 1 0 0)" fill="rgba(184,216,252,0.19)" opacity="1"/><path d="M565.333 311.8718A1 1 0 0 1 563.333 311.8718A1 1 0 0 1 565.333 311.8718" transform="matrix(1 0 0 1 0 0)" fill="rgba(184,216,252,0.19)" opacity="1"/><path d="M505.8746 427.1057A1 1 0 0 1 503.8746 427.1057A1 1 0 0 1 505.8746 427.1057" transform="matrix(1 0 0 1 0 0)" fill="rgba(184,216,252,0.5)" opacity="1"/><path d="M446.4162 542.3397A1 1 0 0 1 444.4162 542.3397A1 1 0 0 1 446.4162 542.3397" transform="matrix(1 0 0 1 0 0)" fill="rgba(184,216,252,0.19)" opacity="1"/><path d="M386.9579 47.5737A1 1 0 0 1 384.9579 47.5737A1 1 0 0 1 386.9579 47.5737" transform="matrix(1 0 0 1 0 0)" fill="rgba(184,216,252,0.19)" opacity="1"/><path d="M327.4995 162.8076A1 1 0 0 1 325.4995 162.8076A1 1 0 0 1 327.4995 162.8076" transform="matrix(1 0 0 1 0 0)" fill="rgba(184,216,252,0.5)" opacity="1"/><path d="M268.0411 278.0416A1 1 0 0 1 266.0411 278.0416A1 1 0 0 1 268.0411 278.0416" transform="matrix(1 0 0 1 0 0)" fill="rgba(184,216,252,0.19)" opacity="1"/><path d="M209.3827 393.2756A1.8 1.8 0 0 1 205.7827 393.2756A1.8 1.8 0 0 1 209.3827 393.2756" transform="matrix(1 0 0 1 0 0)" fill="rgba(184,216,252,0.19)" opacity="1"/><path d="M149.1244 508.5095A1 1 0 0 1 147.1244 508.5095A1 1 0 0 1 149.1244 508.5095" transform="matrix(1 0 0 1 0 0)" fill="rgba(184,216,252,0.5)" opacity="1"/><path d="M89.666 13.7435A1 1 0 0 1 87.666 13.7435A1 1 0 0 1 89.666 13.7435" transform="matrix(1 0 0 1 0 0)" fill="rgba(184,216,252,0.19)" opacity="1"/><path d="M30.2076 128.9775A1 1 0 0 1 28.2076 128.9775A1 1 0 0 1 30.2076 128.9775" transform="matrix(1 0 0 1 0 0)" fill="rgba(184,216,252,0.19)" opacity="1"/><path d="M1010.7492 244.2114A1 1 0 0 1 1008.7492 244.2114A1 1 0 0 1 1010.7492 244.2114" transform="matrix(1 0 0 1 0 0)" fill="rgba(184,216,252,0.5)" opacity="1"/><path d="M951.2909 359.4454A1 1 0 0 1 949.2909 359.4454A1 1 0 0 1 951.2909 359.4454" transform="matrix(1 0 0 1 0 0)" fill="rgba(184,216,252,0.19)" opacity="1"/><path d="M891.8325 474.6794A1 1 0 0 1 889.8325 474.6794A1 1 0 0 1 891.8325 474.6794" transform="matrix(1 0 0 1 0 0)" fill="rgba(184,216,252,0.19)" opacity="1"/><path d="M833.1741 589.9133A1.8 1.8 0 0 1 829.5741 589.9133A1.8 1.8 0 0 1 833.1741 589.9133" transform="matrix(1 0 0 1 0 0)" fill="rgba(184,216,252,0.5)" opacity="1"/><path d="M772.9157 95.1473A1 1 0 0 1 770.9157 95.1473A1 1 0 0 1 772.9157 95.1473" transform="matrix(1 0 0 1 0 0)" fill="rgba(184,216,252,0.19)" opacity="1"/><path d="M713.4574 210.3813A1 1 0 0 1 711.4574 210.3813A1 1 0 0 1 713.4574 210.3813" transform="matrix(1 0 0 1 0 0)" fill="rgba(184,216,252,0.19)" opacity="1"/><path d="M653.999 325.6153A1 1 0 0 1 651.999 325.6153A1 1 0 0 1 653.999 325.6153" transform="matrix(1 0 0 1 0 0)" fill="rgba(184,216,252,0.5)" opacity="1"/><path d="M594.5406 440.8492A1 1 0 0 1 592.5406 440.8492A1 1 0 0 1 594.5406 440.8492" transform="matrix(1 0 0 1 0 0)" fill="rgba(184,216,252,0.19)" opacity="1"/><path d="M535.0822 556.0832A1 1 0 0 1 533.0822 556.0832A1 1 0 0 1 535.0822 556.0832" transform="matrix(1 0 0 1 0 0)" fill="rgba(184,216,252,0.19)" opacity="1"/><path d="M475.6239 61.3172A1 1 0 0 1 473.6239 61.3172A1 1 0 0 1 475.6239 61.3172" transform="matrix(1 0 0 1 0 0)" fill="rgba(184,216,252,0.5)" opacity="1"/><path d="M416.9655 176.5511A1.8 1.8 0 0 1 413.3655 176.5511A1.8 1.8 0 0 1 416.9655 176.5511" transform="matrix(1 0 0 1 0 0)" fill="rgba(184,216,252,0.19)" opacity="1"/><path d="M356.7071 291.7851A1 1 0 0 1 354.7071 291.7851A1 1 0 0 1 356.7071 291.7851" transform="matrix(1 0 0 1 0 0)" fill="rgba(184,216,252,0.19)" opacity="1"/><path d="M297.2487 407.0191A1 1 0 0 1 295.2487 407.0191A1 1 0 0 1 297.2487 407.0191" transform="matrix(1 0 0 1 0 0)" fill="rgba(184,216,252,0.5)" opacity="1"/><path d="M237.7904 522.253A1 1 0 0 1 235.7904 522.253A1 1 0 0 1 237.7904 522.253" transform="matrix(1 0 0 1 0 0)" fill="rgba(184,216,252,0.19)" opacity="1"/><path d="M178.332 27.487A1 1 0 0 1 176.332 27.487A1 1 0 0 1 178.332 27.487" transform="matrix(1 0 0 1 0 0)" fill="rgba(184,216,252,0.19)" opacity="1"/><path d="M118.8736 142.721A1 1 0 0 1 116.8736 142.721A1 1 0 0 1 118.8736 142.721" transform="matrix(1 0 0 1 0 0)" fill="rgba(184,216,252,0.5)" opacity="1"/><path d="M59.4152 257.9549A1 1 0 0 1 57.4152 257.9549A1 1 0 0 1 59.4152 257.9549" transform="matrix(1 0 0 1 0 0)" fill="rgba(184,216,252,0.19)" opacity="1"/><path d="M1040.7569 373.1889A1.8 1.8 0 0 1 1037.1569 373.1889A1.8 1.8 0 0 1 1040.7569 373.1889" transform="matrix(1 0 0 1 0 0)" fill="rgba(184,216,252,0.19)" opacity="1"/><path d="M980.4985 488.4229A1 1 0 0 1 978.4985 488.4229A1 1 0 0 1 980.4985 488.4229" transform="matrix(1 0 0 1 0 0)" fill="rgba(184,216,252,0.5)" opacity="1"/><path d="M921.0401 603.6568A1 1 0 0 1 919.0401 603.6568A1 1 0 0 1 921.0401 603.6568" transform="matrix(1 0 0 1 0 0)" fill="rgba(184,216,252,0.19)" opacity="1"/><path d="M861.5817 108.8908A1 1 0 0 1 859.5817 108.8908A1 1 0 0 1 861.5817 108.8908" transform="matrix(1 0 0 1 0 0)" fill="rgba(184,216,252,0.19)" opacity="1"/><path d="M802.1234 224.1248A1 1 0 0 1 800.1234 224.1248A1 1 0 0 1 802.1234 224.1248" transform="matrix(1 0 0 1 0 0)" fill="rgba(184,216,252,0.5)" opacity="1"/><path d="M742.665 339.3588A1 1 0 0 1 740.665 339.3588A1 1 0 0 1 742.665 339.3588" transform="matrix(1 0 0 1 0 0)" fill="rgba(184,216,252,0.19)" opacity="1"/><path d="M683.2066 454.5927A1 1 0 0 1 681.2066 454.5927A1 1 0 0 1 683.2066 454.5927" transform="matrix(1 0 0 1 0 0)" fill="rgba(184,216,252,0.19)" opacity="1"/><path d="M624.5482 569.8267A1.8 1.8 0 0 1 620.9482 569.8267A1.8 1.8 0 0 1 624.5482 569.8267" transform="matrix(1 0 0 1 0 0)" fill="rgba(184,216,252,0.5)" opacity="1"/><path d="M564.2899 75.0607A1 1 0 0 1 562.2899 75.0607A1 1 0 0 1 564.2899 75.0607" transform="matrix(1 0 0 1 0 0)" fill="rgba(184,216,252,0.19)" opacity="1"/><path d="M504.8315 190.2946A1 1 0 0 1 502.8315 190.2946A1 1 0 0 1 504.8315 190.2946" transform="matrix(1 0 0 1 0 0)" fill="rgba(184,216,252,0.19)" opacity="1"/><path d="M445.3731 305.5286A1 1 0 0 1 443.3731 305.5286A1 1 0 0 1 445.3731 305.5286" transform="matrix(1 0 0 1 0 0)" fill="rgba(184,216,252,0.5)" opacity="1"/><path d="M385.9147 420.7626A1 1 0 0 1 383.9147 420.7626A1 1 0 0 1 385.9147 420.7626" transform="matrix(1 0 0 1 0 0)" fill="rgba(184,216,252,0.19)" opacity="1"/><path d="M326.4564 535.9965A1 1 0 0 1 324.4564 535.9965A1 1 0 0 1 326.4564 535.9965" transform="matrix(1 0 0 1 0 0)" fill="rgba(184,216,252,0.19)" opacity="1"/><path d="M266.998 41.2305A1 1 0 0 1 264.998 41.2305A1 1 0 0 1 266.998 41.2305" transform="matrix(1 0 0 1 0 0)" fill="rgba(184,216,252,0.5)" opacity="1"/><path d="M208.3396 156.4645A1.8 1.8 0 0 1 204.7396 156.4645A1.8 1.8 0 0 1 208.3396 156.4645" transform="matrix(1 0 0 1 0 0)" fill="rgba(184,216,252,0.19)" opacity="1"/><path d="M148.0812 271.6984A1 1 0 0 1 146.0812 271.6984A1 1 0 0 1 148.0812 271.6984" transform="matrix(1 0 0 1 0 0)" fill="rgba(184,216,252,0.19)" opacity="1"/><path d="M88.6229 386.9324A1 1 0 0 1 86.6229 386.9324A1 1 0 0 1 88.6229 386.9324" transform="matrix(1 0 0 1 0 0)" fill="rgba(184,216,252,0.5)" opacity="1"/><path d="M29.1645 502.1664A1 1 0 0 1 27.1645 502.1664A1 1 0 0 1 29.1645 502.1664" transform="matrix(1 0 0 1 0 0)" fill="rgba(184,216,252,0.19)" opacity="1"/><path d="M1009.7061 7.4003A1 1 0 0 1 1007.7061 7.4003A1 1 0 0 1 1009.7061 7.4003" transform="matrix(1 0 0 1 0 0)" fill="rgba(184,216,252,0.19)" opacity="1"/><path d="M950.2477 122.6343A1 1 0 0 1 948.2477 122.6343A1 1 0 0 1 950.2477 122.6343" transform="matrix(1 0 0 1 0 0)" fill="rgba(184,216,252,0.5)" opacity="1"/><path d="M890.7894 237.8683A1 1 0 0 1 888.7894 237.8683A1 1 0 0 1 890.7894 237.8683" transform="matrix(1 0 0 1 0 0)" fill="rgba(184,216,252,0.19)" opacity="1"/><path d="M832.131 353.1023A1.8 1.8 0 0 1 828.531 353.1023A1.8 1.8 0 0 1 832.131 353.1023" transform="matrix(1 0 0 1 0 0)" fill="rgba(184,216,252,0.19)" opacity="1"/><path d="M771.8726 468.3362A1 1 0 0 1 769.8726 468.3362A1 1 0 0 1 771.8726 468.3362" transform="matrix(1 0 0 1 0 0)" fill="rgba(184,216,252,0.5)" opacity="1"/><path d="M712.4142 583.5702A1 1 0 0 1 710.4142 583.5702A1 1 0 0 1 712.4142 583.5702" transform="matrix(1 0 0 1 0 0)" fill="rgba(184,216,252,0.19)" opacity="1"/><path d="M652.9559 88.8042A1 1 0 0 1 650.9559 88.8042A1 1 0 0 1 652.9559 88.8042" transform="matrix(1 0 0 1 0 0)" fill="rgba(184,216,252,0.19)" opacity="1"/><path d="M593.4975 204.0381A1 1 0 0 1 591.4975 204.0381A1 1 0 0 1 593.4975 204.0381" transform="matrix(1 0 0 1 0 0)" fill="rgba(184,216,252,0.5)" opacity="1"/><path d="M534.0391 319.2721A1 1 0 0 1 532.0391 319.2721A1 1 0 0 1 534.0391 319.2721" transform="matrix(1 0 0 1 0 0)" fill="rgba(184,216,252,0.19)" opacity="1"/><path d="M474.5807 434.5061A1 1 0 0 1 472.5807 434.5061A1 1 0 0 1 474.5807 434.5061" transform="matrix(1 0 0 1 0 0)" fill="rgba(184,216,252,0.19)" opacity="1"/><path d="M415.9224 549.74A1.8 1.8 0 0 1 412.3224 549.74A1.8 1.8 0 0 1 415.9224 549.74" transform="matrix(1 0 0 1 0 0)" fill="rgba(184,216,252,0.5)" opacity="1"/><path d="M355.664 54.974A1 1 0 0 1 353.664 54.974A1 1 0 0 1 355.664 54.974" transform="matrix(1 0 0 1 0 0)" fill="rgba(184,216,252,0.19)" opacity="1"/><path d="M296.2056 170.208A1 1 0 0 1 294.2056 170.208A1 1 0 0 1 296.2056 170.208" transform="matrix(1 0 0 1 0 0)" fill="rgba(184,216,252,0.19)" opacity="1"/><path d="M236.7472 285.4419A1 1 0 0 1 234.7472 285.4419A1 1 0 0 1 236.7472 285.4419" transform="matrix(1 0 0 1 0 0)" fill="rgba(184,216,252,0.5)" opacity="1"/><path d="M177.2889 400.6759A1 1 0 0 1 175.2889 400.6759A1 1 0 0 1 177.2889 400.6759" transform="matrix(1 0 0 1 0 0)" fill="rgba(184,216,252,0.19)" opacity="1"/><path d="M117.8305 515.9099A1 1 0 0 1 115.8305 515.9099A1 1 0 0 1 117.8305 515.9099" transform="matrix(1 0 0 1 0 0)" fill="rgba(184,216,252,0.19)" opacity="1"/><path d="M58.3721 21.1438A1 1 0 0 1 56.3721 21.1438A1 1 0 0 1 58.3721 21.1438" transform="matrix(1 0 0 1 0 0)" fill="rgba(184,216,252,0.5)" opacity="1"/><path d="M1039.7137 136.3778A1.8 1.8 0 0 1 1036.1137 136.3778A1.8 1.8 0 0 1 1039.7137 136.3778" transform="matrix(1 0 0 1 0 0)" fill="rgba(184,216,252,0.19)" opacity="1"/><path d="M979.4554 251.6118A1 1 0 0 1 977.4554 251.6118A1 1 0 0 1 979.4554 251.6118" transform="matrix(1 0 0 1 0 0)" fill="rgba(184,216,252,0.19)" opacity="1"/><path d="M919.997 366.8458A1 1 0 0 1 917.997 366.8458A1 1 0 0 1 919.997 366.8458" transform="matrix(1 0 0 1 0 0)" fill="rgba(184,216,252,0.5)" opacity="1"/><path d="M860.5386 482.0797A1 1 0 0 1 858.5386 482.0797A1 1 0 0 1 860.5386 482.0797" transform="matrix(1 0 0 1 0 0)" fill="rgba(184,216,252,0.19)" opacity="1"/><path d="M801.0802 597.3137A1 1 0 0 1 799.0802 597.3137A1 1 0 0 1 801.0802 597.3137" transform="matrix(1 0 0 1 0 0)" fill="rgba(184,216,252,0.19)" opacity="1"/><path d="M741.6219 102.5477A1 1 0 0 1 739.6219 102.5477A1 1 0 0 1 741.6219 102.5477" transform="matrix(1 0 0 1 0 0)" fill="rgba(184,216,252,0.5)" opacity="1"/><path d="M682.1635 217.7816A1 1 0 0 1 680.1635 217.7816A1 1 0 0 1 682.1635 217.7816" transform="matrix(1 0 0 1 0 0)" fill="rgba(184,216,252,0.19)" opacity="1"/><path d="M623.5051 333.0156A1.8 1.8 0 0 1 619.9051 333.0156A1.8 1.8 0 0 1 623.5051 333.0156" transform="matrix(1 0 0 1 0 0)" fill="rgba(184,216,252,0.19)" opacity="1"/><path d="M563.2467 448.2496A1 1 0 0 1 561.2467 448.2496A1 1 0 0 1 563.2467 448.2496" transform="matrix(1 0 0 1 0 0)" fill="rgba(184,216,252,0.5)" opacity="1"/><path d="M503.7884 563.4835A1 1 0 0 1 501.7884 563.4835A1 1 0 0 1 503.7884 563.4835" transform="matrix(1 0 0 1 0 0)" fill="rgba(184,216,252,0.19)" opacity="1"/><path d="M444.33 68.7175A1 1 0 0 1 442.33 68.7175A1 1 0 0 1 444.33 68.7175" transform="matrix(1 0 0 1 0 0)" fill="rgba(184,216,252,0.19)" opacity="1"/><path d="M384.8716 183.9515A1 1 0 0 1 382.8716 183.9515A1 1 0 0 1 384.8716 183.9515" transform="matrix(1 0 0 1 0 0)" fill="rgba(184,216,252,0.5)" opacity="1"/><path d="M325.4132 299.1854A1 1 0 0 1 323.4132 299.1854A1 1 0 0 1 325.4132 299.1854" transform="matrix(1 0 0 1 0 0)" fill="rgba(184,216,252,0.19)" opacity="1"/><path d="M265.9549 414.4194A1 1 0 0 1 263.9549 414.4194A1 1 0 0 1 265.9549 414.4194" transform="matrix(1 0 0 1 0 0)" fill="rgba(184,216,252,0.19)" opacity="1"/><path d="M207.2965 529.6534A1.8 1.8 0 0 1 203.6965 529.6534A1.8 1.8 0 0 1 207.2965 529.6534" transform="matrix(1 0 0 1 0 0)" fill="rgba(184,216,252,0.5)" opacity="1"/><path d="M147.0381 34.8873A1 1 0 0 1 145.0381 34.8873A1 1 0 0 1 147.0381 34.8873" transform="matrix(1 0 0 1 0 0)" fill="rgba(184,216,252,0.19)" opacity="1"/><path d="M87.5797 150.1213A1 1 0 0 1 85.5797 150.1213A1 1 0 0 1 87.5797 150.1213" transform="matrix(1 0 0 1 0 0)" fill="rgba(184,216,252,0.19)" opacity="1"/><path d="M28.1214 265.3553A1 1 0 0 1 26.1214 265.3553A1 1 0 0 1 28.1214 265.3553" transform="matrix(1 0 0 1 0 0)" fill="rgba(184,216,252,0.5)" opacity="1"/><path d="M1008.663 380.5893A1 1 0 0 1 1006.663 380.5893A1 1 0 0 1 1008.663 380.5893" transform="matrix(1 0 0 1 0 0)" fill="rgba(184,216,252,0.19)" opacity="1"/><path d="M949.2046 495.8232A1 1 0 0 1 947.2046 495.8232A1 1 0 0 1 949.2046 495.8232" transform="matrix(1 0 0 1 0 0)" fill="rgba(184,216,252,0.19)" opacity="1"/><text x="38" y="44" transform="matrix(1 0 0 1 0 0)" fill="#eaf2ff" opacity="1" text-anchor="start" dominant-baseline="central" style="font:650 23px system-ui,&quot;Microsoft YaHei&quot;,sans-serif">变轨与交会</text><text x="38" y="76" transform="matrix(1 0 0 1 0 0)" fill="#93abc5" opacity="1" text-anchor="start" dominant-baseline="central" style="font:400 17px system-ui,&quot;Microsoft YaHei&quot;,sans-serif">在轨全景 · 时间压缩 · 载人龙去空间站</text><g clip-path="url(#spaceflight-export-clip-2)"><path d="M511 321A181 181 0 0 1 149 321A181 181 0 0 1 511 321" transform="matrix(1 0 0 1 0 0)" fill="none" stroke="#72d9f344" stroke-width="6" stroke-linecap="round" stroke-linejoin="round" opacity="1"/></g><g clip-path="url(#spaceflight-export-clip-2)"><path d="M505 321A175 175 0 0 1 155 321A175 175 0 0 1 505 321" transform="matrix(1 0 0 1 0 0)" fill="url(#spaceflight-export-gradient-3)" opacity="1"/></g><g clip-path="url(#spaceflight-export-clip-2)"><path d="M505 321A175 175 0 0 1 155 321A175 175 0 0 1 505 321" transform="matrix(1 0 0 1 0 0)" fill="none" stroke="#629db9" stroke-width="2" stroke-linecap="round" stroke-linejoin="round" opacity="1"/></g><g clip-path="url(#spaceflight-export-clip-4)"><g clip-path="url(#spaceflight-export-clip-2)"><path d="M190 224.75L295 181L337 237L312.5 286L263.5 307L281 417.25L216.25 391L190 321Z" transform="matrix(1 0 0 1 0 0)" fill="#489989" opacity="1"/></g></g><g clip-path="url(#spaceflight-export-clip-4)"><g clip-path="url(#spaceflight-export-clip-2)"><path d="M365 259.75L452.5 237L487.5 303.5L408.75 329.75L382.5 417.25L344 363Z" transform="matrix(1 0 0 1 0 0)" fill="#387d80" opacity="1"/></g></g><g clip-path="url(#spaceflight-export-clip-2)"><text x="330" y="321" transform="matrix(1 0 0 1 0 0)" fill="#eaf2ff" opacity="1" text-anchor="middle" dominant-baseline="central" style="font:650 22px system-ui,&quot;Microsoft YaHei&quot;,sans-serif">地球</text></g><g clip-path="url(#spaceflight-export-clip-2)"><path d="M333 321A3 3 0 0 1 327 321A3 3 0 0 1 333 321" transform="matrix(1 0 0 1 0 0)" fill="#71ead0" opacity="1"/></g><g clip-path="url(#spaceflight-export-clip-2)"><path d="M330 146L330.0638 145.9981L330.1404 145.9906L330.2169 145.9769L330.2872 145.9584L330.3574 145.9339L330.4344 145.8998L330.5123 145.8574L330.5917 145.8061L330.6734 145.7453L330.7586 145.6743L330.8332 145.6069L330.9283 145.5156L331.0314 145.4124L331.1447 145.297L331.2707 145.1691L331.4127 145.029L331.5739 144.8773L331.7096 144.7567L331.884 144.6107L332.0813 144.458L332.2863 144.3126L332.499 144.1746L332.7196 144.044L332.9481 143.9208L333.1846 143.805L333.4293 143.6967L333.6823 143.5959L333.9436 143.5026L334.2133 143.4169L334.4916 143.3388L334.7786 143.2683L335.0744 143.2055L335.379 143.1504L335.6926 143.1025L336.0148 143.0606L336.3452 143.0235L336.6835 142.9905L337.0297 142.9612L337.3835 142.9351L337.7449 142.912L338.1139 142.8916L338.4905 142.8737L338.8747 142.8581L339.2667 142.8448L339.6665 142.8336L340.0742 142.8244L340.4901 142.8172L340.9143 142.8119L341.3469 142.8084L341.7883 142.8068L342.2385 142.8071L342.698 142.8093L343.1669 142.8133L343.6456 142.8193L344.1343 142.8273L344.6334 142.8375L345.1431 142.8498L345.6638 142.8644L346.196 142.8814L346.7398 142.901L347.2957 142.9233L347.8642 142.9485L348.4455 142.9767L349.0401 143.0081L349.6484 143.043L350.2708 143.0815L350.9078 143.1238L351.5598 143.1702L352.2272 143.221L352.9107 143.2763L353.6106 143.3365L354.3274 143.4019L355.0617 143.4727L355.8141 143.5492L356.5851 143.6319L357.3752 143.721L358.1852 143.817L359.0157 143.9202L359.8673 144.031L360.7408 144.15L361.6369 144.2776L362.5563 144.4143L363.5001 144.5606L364.4689 144.7172L365.4625 144.8845L366.4787 145.0624L367.5154 145.2509L368.5706 145.45L369.6423 145.6597L370.7291 145.8798L371.8294 146.1105L372.9417 146.3516L374.0648 146.603L375.1975 146.8648L376.3387 147.1369L377.4874 147.4191L378.6428 147.7116L379.8039 148.0141L380.97 148.3266L382.1404 148.6491L383.3143 148.9816L384.4913 149.3238L385.6708 149.6759L386.8522 150.0377L388.0351 150.4091L389.219 150.7901L390.4035 151.1807L391.5882 151.5808L392.7729 151.9903L393.9571 152.4091L395.1406 152.8372L396.323 153.2746L397.5042 153.7212L398.6839 154.1769L399.8618 154.6418L401.0378 155.1156L402.2116 155.5984L403.383 156.0901L404.552 156.5908L405.7182 157.1002L406.8817 157.6184L408.0421 158.1453L409.1994 158.6809L410.3534 159.2252L411.5041 159.778L412.6512 160.3394L413.7948 160.9092L414.9346 161.4875L416.0706 162.0741L417.2026 162.6692L418.3307 163.2725L419.4546 163.8841L420.5743 164.5039L421.6898 165.1319L422.8008 165.768L423.9074 166.4121L425.0095 167.0644L426.107 167.7246L427.1998 168.3928L428.2879 169.0689L429.3711 169.7528L430.4495 170.4446L431.5229 171.1442L432.5913 171.8514L433.6546 172.5664L434.7128 173.2891L435.7658 174.0193L436.8135 174.7571L437.8559 175.5024L438.8929 176.2552L439.9245 177.0155L440.9506 177.7831L441.9711 178.558L442.986 179.3403L443.9953 180.1298L444.9989 180.9265L445.9967 181.7304L446.9887 182.5414L447.9749 183.3595L448.9551 184.1846L449.9293 185.0166L450.8976 185.8557L451.8598 186.7016L452.8158 187.5543L453.7657 188.4139L454.7094 189.2801L455.6468 190.1531L456.578 191.0328L457.5027 191.9191L458.4211 192.8119L459.3331 193.7112L460.2385 194.617L461.1374 195.5292L462.0298 196.4478L462.9155 197.3727L463.7945 198.3039L464.6669 199.2412L465.5325 200.1848L466.3913 201.1345L467.2433 202.0902L468.0884 203.052L468.9266 204.0197L469.7578 204.9933" transform="matrix(1 0 0 1 0 0)" fill="none" stroke="#71ead052" stroke-width="2" stroke-linecap="round" stroke-linejoin="round" opacity="1" stroke-dasharray="7 7"/></g><g clip-path="url(#spaceflight-export-clip-2)"><path d="M470.4452 205.8092L473.6766 209.7802L476.7941 213.8395L479.7952 217.9836L482.6777 222.2094L485.4394 226.5133L488.0782 230.8919L490.5922 235.3417L492.9795 239.859L495.2382 244.4404L497.3668 249.082L499.3637 253.7803L501.2273 258.5314L502.9565 263.3316L504.5498 268.1771L506.0062 273.064L507.3246 277.9885L508.5041 282.9467L509.544 287.9347L510.4435 292.9485L511.2019 297.9843L511.8189 303.038L512.2941 308.1057L512.6271 313.1835L512.8179 318.2674L512.8663 323.3534L512.7726 328.4375L512.5367 333.5159L512.159 338.5846L511.64 343.6396L510.98 348.677L510.1797 353.693L509.2398 358.6837L508.1611 363.6452L506.9445 368.5737L505.591 373.4653L504.1018 378.3165L502.4781 383.1233L500.7212 387.8822L498.8325 392.5894L496.8136 397.2414L494.666 401.8346L492.3915 406.3655L489.9918 410.8307L487.469 415.2266L484.8249 419.55L482.0616 423.7975L479.1813 427.966L476.1863 432.0521L473.0788 436.0529L469.8614 439.9652L466.5364 443.7861L463.1065 447.5126L459.5744 451.1419L455.9427 454.6712L452.2143 458.0979L448.3921 461.4193L444.4789 464.6328L440.4778 467.7361L436.3919 470.7267L432.2242 473.6023L427.9781 476.3608L423.6568 478.9999L419.2636 481.5178L414.8018 483.9123L410.2748 486.1818L405.6863 488.3244L401.0395 490.3384L396.3382 492.2223L391.5859 493.9747L386.7863 495.594L381.943 497.0792L377.0598 498.4289L372.1404 499.6422L367.1885 500.718L362.208 501.6555L357.2027 502.4538L352.1765 503.1124L347.1332 503.6307L342.0766 504.0081L337.0108 504.2445L331.9395 504.3394L326.8668 504.2928L321.7965 504.1047L316.7325 503.775L311.6787 503.3041L306.6392 502.6921L301.6177 501.9395L296.6182 501.0468L291.6446 500.0146L286.7007 498.8435L281.7904 497.5345L276.9175 496.0884L272.0859 494.5063L267.2993 492.7893L262.5615 490.9387L257.8762 488.9557L253.247 486.8419L248.6778 484.5988L244.1719 482.228L239.7331 479.7314L235.3649 477.1107L231.0706 474.3679L226.8538 471.5051L222.7177 468.5244L218.6658 465.428L214.7012 462.2183L210.8272 458.8977L207.0468 455.4688L203.3631 451.9341L199.7792 448.2963L196.2978 444.5582L192.9218 440.7227L189.6541 436.7927L186.4972 432.7712L183.4537 428.6614L180.5263 424.4664L177.7172 420.1894L175.0288 415.8338L172.4633 411.403L170.023 406.9004L167.7098 402.3295L165.5256 397.6939L163.4724 392.9973L161.5519 388.2433L159.7657 383.4357L158.1154 378.5783L156.6024 373.6749L155.228 368.7293L153.9935 363.7456L152.8998 358.7277L151.9481 353.6795L151.1393 348.6051L150.4739 343.5085L149.9528 338.3939L149.5765 333.2653L149.3453 328.1268L149.2595 322.9825L149.3194 317.8367L149.5249 312.6934L149.8761 307.5569L150.3727 302.4312L151.0144 297.3205L151.8009 292.2289L152.7314 287.1606L153.8055 282.1197L155.0223 277.1103L156.3809 272.1365L157.8803 267.2023L159.5194 262.3117L161.2968 257.4688L163.2113 252.6775L165.2613 247.9417L167.4452 243.2652L169.7613 238.6521L172.2078 234.1059L174.7828 229.6304L177.4841 225.2294L180.3097 220.9064L183.2572 216.6649L186.3244 212.5085L189.5087 208.4405L192.8076 204.4643L196.2184 200.5832L199.7384 196.8004L203.3646 193.1189L207.0943 189.5418L210.9242 186.072L214.8514 182.7123L218.8726 179.4656L222.9845 176.3344L227.1838 173.3214L231.4671 170.4289L235.8308 167.6594L240.2714 165.0152L244.7853 162.4982L249.3688 160.1107L254.0181 157.8546L258.7294 155.7315L263.4988 153.7434L268.3226 151.8917L273.1966 150.178L278.117 148.6036L283.0797 147.1698L288.0806 145.8777L293.1157 144.7283L298.1808 143.7225L303.2718 142.861L308.3846 142.1445L313.515 141.5736L318.6588 141.1486L323.8118 140.8699L328.9699 140.7375L334.1288 140.7516L339.2843 140.9119L344.4323 141.2184L349.5686 141.6707L354.689 142.2684L359.7895 143.0108L364.8658 143.8973L369.9139 144.9271L374.9297 146.0992L379.9093 147.4127L384.8485 148.8664L389.7435 150.4589L394.5903 152.189L399.3851 154.055L404.124 156.0556L408.8032 158.1888L413.4191 160.4529L417.968 162.846L422.4463 165.3661L426.8504 168.011L431.1769 170.7785L435.4223 173.6663L439.5834 176.672L443.6569 179.7931L447.6396 183.0271L451.5284 186.3711L455.3203 189.8225L459.0123 193.3785L462.6016 197.036L466.0854 200.7922L469.461 204.6439" transform="matrix(1 0 0 1 0 0)" fill="none" stroke="#88bfff99" stroke-width="2" stroke-linecap="round" stroke-linejoin="round" opacity="1" stroke-dasharray="5 6"/></g><g clip-path="url(#spaceflight-export-clip-2)"><path d="M330 146L330.051 145.9988L330.1149 145.9938L330.1787 145.9845L330.2425 145.9708L330.2935 145.9565L330.3574 145.9339L330.4215 145.9061L330.4862 145.8725L330.5517 145.8329L330.6186 145.7869L330.6874 145.7342L330.7586 145.6743L330.818 145.621L330.8958 145.5473L330.9787 145.4655L331.0679 145.3753L331.1647 145.2765L331.2707 145.1691L331.3878 145.0532L331.5178 144.9291L331.663 144.7974L331.7566 144.7164L331.9163 144.5847L332.0813 144.458L332.2516 144.3363L332.4272 144.2198L332.6083 144.1084L332.7948 144.0021L332.9869 143.901L333.1846 143.805L333.388 143.7143L333.597 143.6287L333.8119 143.5483L334.0325 143.4732L334.2591 143.4034L334.4916 143.3388L334.7302 143.2795L334.9748 143.2256L335.2256 143.177L335.4826 143.1337L335.7457 143.0952L336.0148 143.0606L336.2895 143.0294L336.5699 143.0011L336.8556 142.9754L337.1468 142.9521L337.4432 142.9311L337.7449 142.912L338.0519 142.8948L338.3641 142.8794L338.6817 142.8656L339.0045 142.8534L339.3328 142.8428L339.6665 142.8336L340.0057 142.8258L340.3506 142.8194L340.7011 142.8143L341.0575 142.8105L341.4199 142.808L341.7883 142.8068L342.1629 142.8069L342.5438 142.8083L342.9313 142.811L343.3254 142.8151L343.7263 142.8205L344.1343 142.8273L344.5495 142.8356L344.972 142.8454L345.4021 142.8568L345.8399 142.8698L346.2858 142.8845L346.7398 142.901L347.2022 142.9194L347.6733 142.9398L348.1532 142.9622L348.6422 142.9868L349.1405 143.0137L349.6484 143.043L350.1661 143.0748L350.6938 143.1092L351.2319 143.1465L351.7805 143.1867L352.34 143.2299L352.9107 143.2763L353.4927 143.3262L354.0865 143.3795L354.6923 143.4366L355.3105 143.4975L355.9413 143.5626L356.5851 143.6319L357.2422 143.7057L357.913 143.7842L358.5979 143.8676L359.2972 143.9563L360.0114 144.0503L360.7408 144.15L361.4859 144.2557L362.2472 144.3677L363.0251 144.4862L363.8202 144.6117L364.6328 144.7444L365.4625 144.8845L366.3079 145.032L367.1677 145.1869L368.0408 145.3491L368.9261 145.5187L369.8225 145.6956L370.7291 145.8798L371.6451 146.0713L372.5697 146.2701L373.502 146.476L374.4413 146.6892L375.3871 146.9095L376.3387 147.1369L377.2955 147.3714L378.257 147.613L379.2227 147.8616L380.1921 148.1171L381.1648 148.3797L382.1404 148.6491L383.1185 148.9255L384.0987 149.2086L385.0808 149.4986L386.0644 149.7954L387.0493 150.0989L388.0351 150.4091L389.0216 150.726L390.0086 151.0495L390.9959 151.3796L391.9832 151.7162L392.9703 152.0594L393.9571 152.4091L394.9434 152.7652L395.929 153.1278L396.9138 153.4968L397.8976 153.8721L398.8803 154.2538L399.8618 154.6418L400.8419 155.036L401.8206 155.4365L402.7976 155.8432L403.773 156.256L404.7466 156.6751L405.7182 157.1002L406.688 157.5314L407.6556 157.9687L408.6211 158.4121L409.5844 158.8614L410.5454 159.3167L411.5041 159.778L412.4603 160.2452L413.414 160.7183L414.3652 161.1973L415.3137 161.6821L416.2595 162.1727L417.2026 162.6692L418.143 163.1714L419.0804 163.6793L420.015 164.193L420.9466 164.7123L421.8752 165.2373L422.8008 165.768L423.7233 166.3042L424.6427 166.8461L425.5588 167.3935L426.4718 167.9464L427.3815 168.5049L428.2879 169.0689L429.1909 169.6383L430.0906 170.2131L430.9868 170.7934L431.8796 171.3791L432.7689 171.9701L433.6546 172.5664L434.5368 173.1681L435.4153 173.7751L436.2903 174.3873L437.1615 175.0047L438.0291 175.6274L438.8929 176.2552L439.7529 176.8882L440.6091 177.5264L441.4615 178.1696L442.31 178.818L443.1547 179.4714L443.9953 180.1298L444.8321 180.7932L445.6648 181.4616L446.4935 182.135L447.3181 182.8133L448.1387 183.4965L448.9551 184.1846L449.7674 184.8775L450.5755 185.5752L451.3794 186.2777L452.1791 186.985L452.9746 187.6971L453.7657 188.4139L454.5526 189.1353L455.3351 189.8614L456.1132 190.5921L456.8869 191.3275L457.6562 192.0674L458.4211 192.8119L459.1815 193.5609L459.9374 194.3144L460.6888 195.0723L461.4356 195.8347L462.1778 196.6015L462.9155 197.3727L463.6485 198.1482L464.3769 198.9281L465.1006 199.7122L465.8195 200.5007L466.5338 201.2933L467.2433 202.0902L467.948 202.8913L468.648 203.6965L469.3431 204.5058L470.0334 205.3192L472.612 208.4466L477.8075 215.2116L482.6777 222.2094L487.2124 229.4243L491.4022 236.8401L495.2382 244.4404L498.7128 252.2081L501.8187 260.1262L504.5498 268.1771L506.9005 276.3431L508.8663 284.6063L510.4435 292.9485L511.629 301.3516L512.4209 309.7974L512.8179 318.2674L512.8196 326.7432L512.4265 335.2067L511.64 343.6396L510.462 352.0237L508.8956 360.341L506.9445 368.5737L504.6132 376.7042L501.9072 384.7151L498.8325 392.5894L495.396 400.3103L491.6054 407.8614L487.469 415.2266L482.9958 422.3903L478.1956 429.3373L473.0788 436.0529L467.6565 442.5228L461.9404 448.7333L455.9427 454.6712L449.6764 460.324L443.1548 465.6796L436.3919 470.7267L429.402 475.4544L422.2002 479.8528L414.8018 483.9123L407.2224 487.6244L399.4783 490.9809L391.5859 493.9747L383.5621 496.5991L375.4238 498.8486L367.1885 500.718L358.8737 502.2032L350.4971 503.3008L342.0766 504.0081L333.6303 504.3235L325.1762 504.2458L316.7325 503.775L308.3172 502.9118L299.9486 501.6575L291.6446 500.0146L283.4232 497.9861L275.3022 495.5761L267.2993 492.7893L259.4319 489.6313L251.7171 486.1085L244.1719 482.228L236.8129 477.9979L229.6562 473.4268L222.7177 468.5244L216.0129 463.3006L209.5565 457.7667L203.3631 451.9341L197.4467 445.8152L191.8204 439.4231L186.4972 432.7712L181.4891 425.874L176.8075 418.7461L172.4633 411.403L168.4666 403.8605L166.4336 399.6623" transform="matrix(1 0 0 1 0 0)" fill="none" stroke="#71ead0" stroke-width="3" stroke-linecap="round" stroke-linejoin="round" opacity="1"/></g><g clip-path="url(#spaceflight-export-clip-2)"><path d="M334 146A4 4 0 0 1 326 146A4 4 0 0 1 334 146" transform="matrix(1 0 0 1 0 0)" fill="#ffc58a" opacity="1"/></g><g clip-path="url(#spaceflight-export-clip-2)"><text x="342" y="163" transform="matrix(1 0 0 1 0 0)" fill="#ffc58a" opacity="1" text-anchor="start" dominant-baseline="central" style="font:400 15px system-ui,&quot;Microsoft YaHei&quot;,sans-serif">起飞时位置</text></g><g clip-path="url(#spaceflight-export-clip-2)"><path d="M178.4336 399.6623A12 12 0 0 1 154.4336 399.6623A12 12 0 0 1 178.4336 399.6623" transform="matrix(1 0 0 1 0 0)" fill="#71ead033" opacity="1"/></g><g clip-path="url(#spaceflight-export-clip-2)"><path d="M171.4336 399.6623A5 5 0 0 1 161.4336 399.6623A5 5 0 0 1 171.4336 399.6623" transform="matrix(1 0 0 1 0 0)" fill="#f0fff9" opacity="1"/></g><g clip-path="url(#spaceflight-export-clip-2)"><path d="M171.4336 399.6623A5 5 0 0 1 161.4336 399.6623A5 5 0 0 1 171.4336 399.6623" transform="matrix(1 0 0 1 0 0)" fill="none" stroke="#71ead0" stroke-width="2" stroke-linecap="round" stroke-linejoin="round" opacity="1"/></g><g clip-path="url(#spaceflight-export-clip-2)"><path d="M166.4336 399.6623L141.4021 346.2355" transform="matrix(1 0 0 1 0 0)" fill="none" stroke="#71ead0" stroke-width="3" stroke-linecap="round" stroke-linejoin="round" opacity="1"/></g><g clip-path="url(#spaceflight-export-clip-2)"><path d="M141.4021 346.2355L149.937 353.1749L141.2717 357.2347Z" transform="matrix(1 0 0 1 0 0)" fill="#71ead0" opacity="1"/></g><g clip-path="url(#spaceflight-export-clip-2)"><path d="M166.4336 399.6623L206.9876 380.1591" transform="matrix(1 0 0 1 0 0)" fill="none" stroke="#ffc58a" stroke-width="3" stroke-linecap="round" stroke-linejoin="round" opacity="1"/></g><g clip-path="url(#spaceflight-export-clip-2)"><path d="M206.9876 380.1591L200.1349 388.7638L195.9876 380.14Z" transform="matrix(1 0 0 1 0 0)" fill="#ffc58a" opacity="1"/></g><path d="M730 113L993 113Q1008 113 1008 128L1008 500Q1008 515 993 515L730 515Q715 515 715 500L715 128Q715 113 730 113Z" transform="matrix(1 0 0 1 0 0)" fill="#102a40" opacity="1"/><path d="M730 113L993 113Q1008 113 1008 128L1008 500Q1008 515 993 515L730 515Q715 515 715 500L715 128Q715 113 730 113Z" transform="matrix(1 0 0 1 0 0)" fill="none" stroke="#416780" stroke-width="1.5" stroke-linecap="round" stroke-linejoin="round" opacity="1"/><text x="861" y="143" transform="matrix(1 0 0 1 0 0)" fill="#93abc5" opacity="1" text-anchor="middle" dominant-baseline="central" style="font:400 18px system-ui,&quot;Microsoft YaHei&quot;,sans-serif">当前位置 · 飞行器放大</text><path d="M-27 0L27 0Q31 0 31 4L31 58Q31 62 27 62L-27 62Q-31 62 -31 58L-31 4Q-31 0 -27 0Z" transform="matrix(0.815 -0.3818 0.3818 0.815 858 289)" fill="url(#spaceflight-export-gradient-5)" opacity="1"/><path d="M-27 0L27 0Q31 0 31 4L31 58Q31 62 27 62L-27 62Q-31 62 -31 58L-31 4Q-31 0 -27 0Z" transform="matrix(0.815 -0.3818 0.3818 0.815 858 289)" fill="none" stroke="#8ca9b9" stroke-width="1.5" stroke-linecap="round" stroke-linejoin="round" opacity="1"/><path d="M-24 9L24 9Q26 9 26 11L26 51Q26 53 24 53L-24 53Q-26 53 -26 51L-26 11Q-26 9 -24 9Z" transform="matrix(0.815 -0.3818 0.3818 0.815 858 289)" fill="#214465" opacity="1"/><path d="M-24 9L24 9Q26 9 26 11L26 51Q26 53 24 53L-24 53Q-26 53 -26 51L-26 11Q-26 9 -24 9Z" transform="matrix(0.815 -0.3818 0.3818 0.815 858 289)" fill="none" stroke="#81bfda" stroke-width="1.5" stroke-linecap="round" stroke-linejoin="round" opacity="1"/><path d="M-15.6 9L-15.6 53" transform="matrix(0.815 -0.3818 0.3818 0.815 858 289)" fill="none" stroke="#8dcde855" stroke-width="1" stroke-linecap="round" stroke-linejoin="round" opacity="1"/><path d="M-5.2 9L-5.2 53" transform="matrix(0.815 -0.3818 0.3818 0.815 858 289)" fill="none" stroke="#8dcde855" stroke-width="1" stroke-linecap="round" stroke-linejoin="round" opacity="1"/><path d="M5.2 9L5.2 53" transform="matrix(0.815 -0.3818 0.3818 0.815 858 289)" fill="none" stroke="#8dcde855" stroke-width="1" stroke-linecap="round" stroke-linejoin="round" opacity="1"/><path d="M15.6 9L15.6 53" transform="matrix(0.815 -0.3818 0.3818 0.815 858 289)" fill="none" stroke="#8dcde855" stroke-width="1" stroke-linecap="round" stroke-linejoin="round" opacity="1"/><path d="M-26 20L26 20" transform="matrix(0.815 -0.3818 0.3818 0.815 858 289)" fill="none" stroke="#8dcde855" stroke-width="1" stroke-linecap="round" stroke-linejoin="round" opacity="1"/><path d="M-26 31L26 31" transform="matrix(0.815 -0.3818 0.3818 0.815 858 289)" fill="none" stroke="#8dcde855" stroke-width="1" stroke-linecap="round" stroke-linejoin="round" opacity="1"/><path d="M-26 42L26 42" transform="matrix(0.815 -0.3818 0.3818 0.815 858 289)" fill="none" stroke="#8dcde855" stroke-width="1" stroke-linecap="round" stroke-linejoin="round" opacity="1"/><path d="M-31 59L31 59" transform="matrix(0.815 -0.3818 0.3818 0.815 858 289)" fill="none" stroke="#5d7b91" stroke-width="3" stroke-linecap="round" stroke-linejoin="round" opacity="1"/><path d="M-33 0L-38 -25L-26 -65L26 -65L38 -25L33 0Z" transform="matrix(0.815 -0.3818 0.3818 0.815 858 289)" fill="#eef3f4" opacity="1"/><path d="M-33 0L-38 -25L-26 -65L26 -65L38 -25L33 0Z" transform="matrix(0.815 -0.3818 0.3818 0.815 858 289)" fill="none" stroke="#829cad" stroke-width="2" stroke-linecap="round" stroke-linejoin="round" opacity="1"/><path d="M-29 -4L29 -4Q32 -4 32 -1L32 1Q32 4 29 4L-29 4Q-32 4 -32 1L-32 -1Q-32 -4 -29 -4Z" transform="matrix(0.815 -0.3818 0.3818 0.815 858 289)" fill="#223e51" opacity="1"/><path d="M-15 -54L-12 -54Q-7 -54 -7 -49L-7 -45Q-7 -40 -12 -40L-15 -40Q-20 -40 -20 -45L-20 -49Q-20 -54 -15 -54Z" transform="matrix(0.815 -0.3818 0.3818 0.815 858 289)" fill="#235478" opacity="1"/><path d="M-15 -54L-12 -54Q-7 -54 -7 -49L-7 -45Q-7 -40 -12 -40L-15 -40Q-20 -40 -20 -45L-20 -49Q-20 -54 -15 -54Z" transform="matrix(0.815 -0.3818 0.3818 0.815 858 289)" fill="none" stroke="#8bcad5" stroke-width="1.5" stroke-linecap="round" stroke-linejoin="round" opacity="1"/><path d="M12 -54L15 -54Q20 -54 20 -49L20 -45Q20 -40 15 -40L12 -40Q7 -40 7 -45L7 -49Q7 -54 12 -54Z" transform="matrix(0.815 -0.3818 0.3818 0.815 858 289)" fill="#235478" opacity="1"/><path d="M12 -54L15 -54Q20 -54 20 -49L20 -45Q20 -40 15 -40L12 -40Q7 -40 7 -45L7 -49Q7 -54 12 -54Z" transform="matrix(0.815 -0.3818 0.3818 0.815 858 289)" fill="none" stroke="#8bcad5" stroke-width="1.5" stroke-linecap="round" stroke-linejoin="round" opacity="1"/><path d="M-28 -29L-29 -16" transform="matrix(0.815 -0.3818 0.3818 0.815 858 289)" fill="none" stroke="#577a8d" stroke-width="4" stroke-linecap="round" stroke-linejoin="round" opacity="1"/><path d="M28 -29L29 -16" transform="matrix(0.815 -0.3818 0.3818 0.815 858 289)" fill="none" stroke="#577a8d" stroke-width="4" stroke-linecap="round" stroke-linejoin="round" opacity="1"/><path d="M14 -64A14 14 0 0 1 -14 -64A14 14 0 0 1 14 -64" transform="matrix(0.815 -0.3818 0.3818 0.815 858 289)" fill="#233c51" opacity="1"/><path d="M14 -64A14 14 0 0 1 -14 -64A14 14 0 0 1 14 -64" transform="matrix(0.815 -0.3818 0.3818 0.815 858 289)" fill="none" stroke="#9cbdca" stroke-width="3" stroke-linecap="round" stroke-linejoin="round" opacity="1"/><path d="M-10 -67L10 -67" transform="matrix(0.815 -0.3818 0.3818 0.815 858 289)" fill="none" stroke="#71ead0" stroke-width="2" stroke-linecap="round" stroke-linejoin="round" opacity="1"/><path d="M-52 0L-39 -14L-26 -25L-13 -14L0 0Z" transform="matrix(0.2564 0.8627 -0.8627 0.2564 854.3703 226.0982)" fill="#eef4f3" opacity="1"/><path d="M-52 0L-39 -14L-26 -25L-13 -14L0 0Z" transform="matrix(0.2564 0.8627 -0.8627 0.2564 854.3703 226.0982)" fill="none" stroke="#89a4b3" stroke-width="2" stroke-linecap="round" stroke-linejoin="round" opacity="1"/><path d="M815 379L907 379Q925 379 925 397L925 397Q925 415 907 415L815 415Q797 415 797 397L797 397Q797 379 815 379Z" transform="matrix(1 0 0 1 0 0)" fill="#132b41" opacity="1"/><path d="M815 379L907 379Q925 379 925 397L925 397Q925 415 907 415L815 415Q797 415 797 397L797 397Q797 379 815 379Z" transform="matrix(1 0 0 1 0 0)" fill="none" stroke="#71ead0" stroke-width="1.5" stroke-linecap="round" stroke-linejoin="round" opacity="1"/><text x="861" y="397" transform="matrix(1 0 0 1 0 0)" fill="#71ead0" opacity="1" text-anchor="middle" dominant-baseline="central" style="font:500 17px system-ui,&quot;Microsoft YaHei&quot;,sans-serif">发动机已关机</text><text x="861" y="441" transform="matrix(1 0 0 1 0 0)" fill="#eaf2ff" opacity="1" text-anchor="middle" dominant-baseline="central" style="font:400 17px system-ui,&quot;Microsoft YaHei&quot;,sans-serif">没有尾焰，仍沿轨道前进</text><path d="M740 479L770 479" transform="matrix(1 0 0 1 0 0)" fill="none" stroke="#71ead0" stroke-width="3" stroke-linecap="round" stroke-linejoin="round" opacity="1"/><text x="781" y="479" transform="matrix(1 0 0 1 0 0)" fill="#71ead0" opacity="1" text-anchor="start" dominant-baseline="central" style="font:400 15px system-ui,&quot;Microsoft YaHei&quot;,sans-serif">已经飞过</text><path d="M740 499L770 499" transform="matrix(1 0 0 1 0 0)" fill="none" stroke="#629fff" stroke-width="2" stroke-linecap="round" stroke-linejoin="round" opacity="1" stroke-dasharray="5 5"/><text x="781" y="499" transform="matrix(1 0 0 1 0 0)" fill="#629fff" opacity="1" text-anchor="start" dominant-baseline="central" style="font:400 15px system-ui,&quot;Microsoft YaHei&quot;,sans-serif">关机后的闭合轨道</text><text x="349" y="548" transform="matrix(1 0 0 1 0 0)" fill="#93abc5" opacity="1" text-anchor="middle" dominant-baseline="central" style="font:400 18px system-ui,&quot;Microsoft YaHei&quot;,sans-serif">速度沿切线 · 引力指向地心</text><text x="30" y="591" transform="matrix(1 0 0 1 0 0)" fill="#90a9be" opacity="1" text-anchor="start" dominant-baseline="central" style="font:400 14px system-ui,&quot;Microsoft YaHei&quot;,sans-serif">原创 SVG 示意 · 部件、距离与时间不按真实比例</text></g></svg>