<?xml version="1.0" encoding="UTF-8"?>
<svg id="spaceflight-export" aria-label="分离，二级继续推进" viewBox="0 0 1040 610" role="img" xmlns="http://www.w3.org/2000/svg" width="1040" height="610"><title>分离，二级继续推进</title><desc>MathPhysics 原创 SVG。可编辑的路径、文字与渐变；图形不按真实比例，演示不是飞行遥测。</desc><defs><linearGradient id="spaceflight-export-gradient-1" gradientUnits="userSpaceOnUse" x1="0" y1="0" x2="0" y2="610"><stop offset="0" stop-color="#071120"/><stop offset="0.65" stop-color="#102642"/><stop offset="1" stop-color="#28556c"/></linearGradient><linearGradient id="spaceflight-export-gradient-2" gradientUnits="userSpaceOnUse" x1="0" y1="0" x2="0" y2="610"><stop offset="0" stop-color="#071120"/><stop offset="0.65" stop-color="#102642"/><stop offset="1" stop-color="#123851"/></linearGradient><linearGradient id="spaceflight-export-gradient-3" gradientUnits="userSpaceOnUse" x1="-25" y1="0" x2="25" y2="0"><stop offset="0" stop-color="#87a6bf"/><stop offset="0.28" stop-color="#f8fcff"/><stop offset="0.7" stop-color="#dceaf0"/><stop offset="1" stop-color="#90aebe"/></linearGradient><linearGradient id="spaceflight-export-gradient-4" gradientUnits="userSpaceOnUse" x1="0" y1="20" x2="0" y2="84"><stop offset="0" stop-color="#e7fbff"/><stop offset="0.2" stop-color="#88e7ff"/><stop offset="0.6" stop-color="#ffb25d"/><stop offset="1" stop-color="#ff714400"/></linearGradient><linearGradient id="spaceflight-export-gradient-5" gradientUnits="userSpaceOnUse" x1="-25" y1="0" x2="25" y2="0"><stop offset="0" stop-color="#87a6bf"/><stop offset="0.28" stop-color="#f8fcff"/><stop offset="0.7" stop-color="#dceaf0"/><stop offset="1" stop-color="#90aebe"/></linearGradient></defs><g data-vector-layer="illustration"><path d="M0 0L1040 0Q1040 0 1040 0L1040 610Q1040 610 1040 610L0 610Q0 610 0 610L0 0Q0 0 0 0Z" transform="matrix(1 0 0 1 0 0)" fill="url(#spaceflight-export-gradient-1)" opacity="1"/><path d="M1.8 0A1.8 1.8 0 0 1 -1.8 0A1.8 1.8 0 0 1 1.8 0" transform="matrix(1 0 0 1 0 0)" fill="rgba(184,216,252,0.5)" opacity="1"/><path d="M981.5416 115.234A1 1 0 0 1 979.5416 115.234A1 1 0 0 1 981.5416 115.234" transform="matrix(1 0 0 1 0 0)" fill="rgba(184,216,252,0.19)" opacity="1"/><path d="M922.0832 230.4679A1 1 0 0 1 920.0832 230.4679A1 1 0 0 1 922.0832 230.4679" transform="matrix(1 0 0 1 0 0)" fill="rgba(184,216,252,0.19)" opacity="1"/><path d="M862.6249 345.7019A1 1 0 0 1 860.6249 345.7019A1 1 0 0 1 862.6249 345.7019" transform="matrix(1 0 0 1 0 0)" fill="rgba(184,216,252,0.5)" opacity="1"/><path d="M803.1665 460.9359A1 1 0 0 1 801.1665 460.9359A1 1 0 0 1 803.1665 460.9359" transform="matrix(1 0 0 1 0 0)" fill="rgba(184,216,252,0.19)" opacity="1"/><path d="M743.7081 576.1698A1 1 0 0 1 741.7081 576.1698A1 1 0 0 1 743.7081 576.1698" transform="matrix(1 0 0 1 0 0)" fill="rgba(184,216,252,0.19)" opacity="1"/><path d="M684.2497 81.4038A1 1 0 0 1 682.2497 81.4038A1 1 0 0 1 684.2497 81.4038" transform="matrix(1 0 0 1 0 0)" fill="rgba(184,216,252,0.5)" opacity="1"/><path d="M625.5914 196.6378A1.8 1.8 0 0 1 621.9914 196.6378A1.8 1.8 0 0 1 625.5914 196.6378" transform="matrix(1 0 0 1 0 0)" fill="rgba(184,216,252,0.19)" opacity="1"/><path d="M565.333 311.8718A1 1 0 0 1 563.333 311.8718A1 1 0 0 1 565.333 311.8718" transform="matrix(1 0 0 1 0 0)" fill="rgba(184,216,252,0.19)" opacity="1"/><path d="M505.8746 427.1057A1 1 0 0 1 503.8746 427.1057A1 1 0 0 1 505.8746 427.1057" transform="matrix(1 0 0 1 0 0)" fill="rgba(184,216,252,0.5)" opacity="1"/><path d="M446.4162 542.3397A1 1 0 0 1 444.4162 542.3397A1 1 0 0 1 446.4162 542.3397" transform="matrix(1 0 0 1 0 0)" fill="rgba(184,216,252,0.19)" opacity="1"/><path d="M386.9579 47.5737A1 1 0 0 1 384.9579 47.5737A1 1 0 0 1 386.9579 47.5737" transform="matrix(1 0 0 1 0 0)" fill="rgba(184,216,252,0.19)" opacity="1"/><path d="M327.4995 162.8076A1 1 0 0 1 325.4995 162.8076A1 1 0 0 1 327.4995 162.8076" transform="matrix(1 0 0 1 0 0)" fill="rgba(184,216,252,0.5)" opacity="1"/><path d="M268.0411 278.0416A1 1 0 0 1 266.0411 278.0416A1 1 0 0 1 268.0411 278.0416" transform="matrix(1 0 0 1 0 0)" fill="rgba(184,216,252,0.19)" opacity="1"/><path d="M209.3827 393.2756A1.8 1.8 0 0 1 205.7827 393.2756A1.8 1.8 0 0 1 209.3827 393.2756" transform="matrix(1 0 0 1 0 0)" fill="rgba(184,216,252,0.19)" opacity="1"/><path d="M149.1244 508.5095A1 1 0 0 1 147.1244 508.5095A1 1 0 0 1 149.1244 508.5095" transform="matrix(1 0 0 1 0 0)" fill="rgba(184,216,252,0.5)" opacity="1"/><path d="M89.666 13.7435A1 1 0 0 1 87.666 13.7435A1 1 0 0 1 89.666 13.7435" transform="matrix(1 0 0 1 0 0)" fill="rgba(184,216,252,0.19)" opacity="1"/><path d="M30.2076 128.9775A1 1 0 0 1 28.2076 128.9775A1 1 0 0 1 30.2076 128.9775" transform="matrix(1 0 0 1 0 0)" fill="rgba(184,216,252,0.19)" opacity="1"/><path d="M1010.7492 244.2114A1 1 0 0 1 1008.7492 244.2114A1 1 0 0 1 1010.7492 244.2114" transform="matrix(1 0 0 1 0 0)" fill="rgba(184,216,252,0.5)" opacity="1"/><path d="M951.2909 359.4454A1 1 0 0 1 949.2909 359.4454A1 1 0 0 1 951.2909 359.4454" transform="matrix(1 0 0 1 0 0)" fill="rgba(184,216,252,0.19)" opacity="1"/><path d="M891.8325 474.6794A1 1 0 0 1 889.8325 474.6794A1 1 0 0 1 891.8325 474.6794" transform="matrix(1 0 0 1 0 0)" fill="rgba(184,216,252,0.19)" opacity="1"/><path d="M833.1741 589.9133A1.8 1.8 0 0 1 829.5741 589.9133A1.8 1.8 0 0 1 833.1741 589.9133" transform="matrix(1 0 0 1 0 0)" fill="rgba(184,216,252,0.5)" opacity="1"/><path d="M772.9157 95.1473A1 1 0 0 1 770.9157 95.1473A1 1 0 0 1 772.9157 95.1473" transform="matrix(1 0 0 1 0 0)" fill="rgba(184,216,252,0.19)" opacity="1"/><path d="M713.4574 210.3813A1 1 0 0 1 711.4574 210.3813A1 1 0 0 1 713.4574 210.3813" transform="matrix(1 0 0 1 0 0)" fill="rgba(184,216,252,0.19)" opacity="1"/><path d="M653.999 325.6153A1 1 0 0 1 651.999 325.6153A1 1 0 0 1 653.999 325.6153" transform="matrix(1 0 0 1 0 0)" fill="rgba(184,216,252,0.5)" opacity="1"/><path d="M594.5406 440.8492A1 1 0 0 1 592.5406 440.8492A1 1 0 0 1 594.5406 440.8492" transform="matrix(1 0 0 1 0 0)" fill="rgba(184,216,252,0.19)" opacity="1"/><path d="M535.0822 556.0832A1 1 0 0 1 533.0822 556.0832A1 1 0 0 1 535.0822 556.0832" transform="matrix(1 0 0 1 0 0)" fill="rgba(184,216,252,0.19)" opacity="1"/><path d="M475.6239 61.3172A1 1 0 0 1 473.6239 61.3172A1 1 0 0 1 475.6239 61.3172" transform="matrix(1 0 0 1 0 0)" fill="rgba(184,216,252,0.5)" opacity="1"/><path d="M416.9655 176.5511A1.8 1.8 0 0 1 413.3655 176.5511A1.8 1.8 0 0 1 416.9655 176.5511" transform="matrix(1 0 0 1 0 0)" fill="rgba(184,216,252,0.19)" opacity="1"/><path d="M356.7071 291.7851A1 1 0 0 1 354.7071 291.7851A1 1 0 0 1 356.7071 291.7851" transform="matrix(1 0 0 1 0 0)" fill="rgba(184,216,252,0.19)" opacity="1"/><path d="M297.2487 407.0191A1 1 0 0 1 295.2487 407.0191A1 1 0 0 1 297.2487 407.0191" transform="matrix(1 0 0 1 0 0)" fill="rgba(184,216,252,0.5)" opacity="1"/><path d="M237.7904 522.253A1 1 0 0 1 235.7904 522.253A1 1 0 0 1 237.7904 522.253" transform="matrix(1 0 0 1 0 0)" fill="rgba(184,216,252,0.19)" opacity="1"/><path d="M178.332 27.487A1 1 0 0 1 176.332 27.487A1 1 0 0 1 178.332 27.487" transform="matrix(1 0 0 1 0 0)" fill="rgba(184,216,252,0.19)" opacity="1"/><path d="M118.8736 142.721A1 1 0 0 1 116.8736 142.721A1 1 0 0 1 118.8736 142.721" transform="matrix(1 0 0 1 0 0)" fill="rgba(184,216,252,0.5)" opacity="1"/><path d="M59.4152 257.9549A1 1 0 0 1 57.4152 257.9549A1 1 0 0 1 59.4152 257.9549" transform="matrix(1 0 0 1 0 0)" fill="rgba(184,216,252,0.19)" opacity="1"/><path d="M1040.7569 373.1889A1.8 1.8 0 0 1 1037.1569 373.1889A1.8 1.8 0 0 1 1040.7569 373.1889" transform="matrix(1 0 0 1 0 0)" fill="rgba(184,216,252,0.19)" opacity="1"/><path d="M980.4985 488.4229A1 1 0 0 1 978.4985 488.4229A1 1 0 0 1 980.4985 488.4229" transform="matrix(1 0 0 1 0 0)" fill="rgba(184,216,252,0.5)" opacity="1"/><path d="M921.0401 603.6568A1 1 0 0 1 919.0401 603.6568A1 1 0 0 1 921.0401 603.6568" transform="matrix(1 0 0 1 0 0)" fill="rgba(184,216,252,0.19)" opacity="1"/><path d="M861.5817 108.8908A1 1 0 0 1 859.5817 108.8908A1 1 0 0 1 861.5817 108.8908" transform="matrix(1 0 0 1 0 0)" fill="rgba(184,216,252,0.19)" opacity="1"/><path d="M802.1234 224.1248A1 1 0 0 1 800.1234 224.1248A1 1 0 0 1 802.1234 224.1248" transform="matrix(1 0 0 1 0 0)" fill="rgba(184,216,252,0.5)" opacity="1"/><path d="M742.665 339.3588A1 1 0 0 1 740.665 339.3588A1 1 0 0 1 742.665 339.3588" transform="matrix(1 0 0 1 0 0)" fill="rgba(184,216,252,0.19)" opacity="1"/><path d="M683.2066 454.5927A1 1 0 0 1 681.2066 454.5927A1 1 0 0 1 683.2066 454.5927" transform="matrix(1 0 0 1 0 0)" fill="rgba(184,216,252,0.19)" opacity="1"/><path d="M624.5482 569.8267A1.8 1.8 0 0 1 620.9482 569.8267A1.8 1.8 0 0 1 624.5482 569.8267" transform="matrix(1 0 0 1 0 0)" fill="rgba(184,216,252,0.5)" opacity="1"/><path d="M564.2899 75.0607A1 1 0 0 1 562.2899 75.0607A1 1 0 0 1 564.2899 75.0607" transform="matrix(1 0 0 1 0 0)" fill="rgba(184,216,252,0.19)" opacity="1"/><path d="M504.8315 190.2946A1 1 0 0 1 502.8315 190.2946A1 1 0 0 1 504.8315 190.2946" transform="matrix(1 0 0 1 0 0)" fill="rgba(184,216,252,0.19)" opacity="1"/><path d="M445.3731 305.5286A1 1 0 0 1 443.3731 305.5286A1 1 0 0 1 445.3731 305.5286" transform="matrix(1 0 0 1 0 0)" fill="rgba(184,216,252,0.5)" opacity="1"/><path d="M385.9147 420.7626A1 1 0 0 1 383.9147 420.7626A1 1 0 0 1 385.9147 420.7626" transform="matrix(1 0 0 1 0 0)" fill="rgba(184,216,252,0.19)" opacity="1"/><path d="M326.4564 535.9965A1 1 0 0 1 324.4564 535.9965A1 1 0 0 1 326.4564 535.9965" transform="matrix(1 0 0 1 0 0)" fill="rgba(184,216,252,0.19)" opacity="1"/><path d="M266.998 41.2305A1 1 0 0 1 264.998 41.2305A1 1 0 0 1 266.998 41.2305" transform="matrix(1 0 0 1 0 0)" fill="rgba(184,216,252,0.5)" opacity="1"/><path d="M208.3396 156.4645A1.8 1.8 0 0 1 204.7396 156.4645A1.8 1.8 0 0 1 208.3396 156.4645" transform="matrix(1 0 0 1 0 0)" fill="rgba(184,216,252,0.19)" opacity="1"/><path d="M148.0812 271.6984A1 1 0 0 1 146.0812 271.6984A1 1 0 0 1 148.0812 271.6984" transform="matrix(1 0 0 1 0 0)" fill="rgba(184,216,252,0.19)" opacity="1"/><path d="M88.6229 386.9324A1 1 0 0 1 86.6229 386.9324A1 1 0 0 1 88.6229 386.9324" transform="matrix(1 0 0 1 0 0)" fill="rgba(184,216,252,0.5)" opacity="1"/><path d="M29.1645 502.1664A1 1 0 0 1 27.1645 502.1664A1 1 0 0 1 29.1645 502.1664" transform="matrix(1 0 0 1 0 0)" fill="rgba(184,216,252,0.19)" opacity="1"/><path d="M1009.7061 7.4003A1 1 0 0 1 1007.7061 7.4003A1 1 0 0 1 1009.7061 7.4003" transform="matrix(1 0 0 1 0 0)" fill="rgba(184,216,252,0.19)" opacity="1"/><path d="M950.2477 122.6343A1 1 0 0 1 948.2477 122.6343A1 1 0 0 1 950.2477 122.6343" transform="matrix(1 0 0 1 0 0)" fill="rgba(184,216,252,0.5)" opacity="1"/><path d="M890.7894 237.8683A1 1 0 0 1 888.7894 237.8683A1 1 0 0 1 890.7894 237.8683" transform="matrix(1 0 0 1 0 0)" fill="rgba(184,216,252,0.19)" opacity="1"/><path d="M832.131 353.1023A1.8 1.8 0 0 1 828.531 353.1023A1.8 1.8 0 0 1 832.131 353.1023" transform="matrix(1 0 0 1 0 0)" fill="rgba(184,216,252,0.19)" opacity="1"/><path d="M771.8726 468.3362A1 1 0 0 1 769.8726 468.3362A1 1 0 0 1 771.8726 468.3362" transform="matrix(1 0 0 1 0 0)" fill="rgba(184,216,252,0.5)" opacity="1"/><path d="M712.4142 583.5702A1 1 0 0 1 710.4142 583.5702A1 1 0 0 1 712.4142 583.5702" transform="matrix(1 0 0 1 0 0)" fill="rgba(184,216,252,0.19)" opacity="1"/><path d="M652.9559 88.8042A1 1 0 0 1 650.9559 88.8042A1 1 0 0 1 652.9559 88.8042" transform="matrix(1 0 0 1 0 0)" fill="rgba(184,216,252,0.19)" opacity="1"/><path d="M593.4975 204.0381A1 1 0 0 1 591.4975 204.0381A1 1 0 0 1 593.4975 204.0381" transform="matrix(1 0 0 1 0 0)" fill="rgba(184,216,252,0.5)" opacity="1"/><path d="M534.0391 319.2721A1 1 0 0 1 532.0391 319.2721A1 1 0 0 1 534.0391 319.2721" transform="matrix(1 0 0 1 0 0)" fill="rgba(184,216,252,0.19)" opacity="1"/><path d="M474.5807 434.5061A1 1 0 0 1 472.5807 434.5061A1 1 0 0 1 474.5807 434.5061" transform="matrix(1 0 0 1 0 0)" fill="rgba(184,216,252,0.19)" opacity="1"/><path d="M415.9224 549.74A1.8 1.8 0 0 1 412.3224 549.74A1.8 1.8 0 0 1 415.9224 549.74" transform="matrix(1 0 0 1 0 0)" fill="rgba(184,216,252,0.5)" opacity="1"/><path d="M355.664 54.974A1 1 0 0 1 353.664 54.974A1 1 0 0 1 355.664 54.974" transform="matrix(1 0 0 1 0 0)" fill="rgba(184,216,252,0.19)" opacity="1"/><path d="M296.2056 170.208A1 1 0 0 1 294.2056 170.208A1 1 0 0 1 296.2056 170.208" transform="matrix(1 0 0 1 0 0)" fill="rgba(184,216,252,0.19)" opacity="1"/><path d="M236.7472 285.4419A1 1 0 0 1 234.7472 285.4419A1 1 0 0 1 236.7472 285.4419" transform="matrix(1 0 0 1 0 0)" fill="rgba(184,216,252,0.5)" opacity="1"/><path d="M177.2889 400.6759A1 1 0 0 1 175.2889 400.6759A1 1 0 0 1 177.2889 400.6759" transform="matrix(1 0 0 1 0 0)" fill="rgba(184,216,252,0.19)" opacity="1"/><path d="M117.8305 515.9099A1 1 0 0 1 115.8305 515.9099A1 1 0 0 1 117.8305 515.9099" transform="matrix(1 0 0 1 0 0)" fill="rgba(184,216,252,0.19)" opacity="1"/><path d="M58.3721 21.1438A1 1 0 0 1 56.3721 21.1438A1 1 0 0 1 58.3721 21.1438" transform="matrix(1 0 0 1 0 0)" fill="rgba(184,216,252,0.5)" opacity="1"/><path d="M1039.7137 136.3778A1.8 1.8 0 0 1 1036.1137 136.3778A1.8 1.8 0 0 1 1039.7137 136.3778" transform="matrix(1 0 0 1 0 0)" fill="rgba(184,216,252,0.19)" opacity="1"/><path d="M979.4554 251.6118A1 1 0 0 1 977.4554 251.6118A1 1 0 0 1 979.4554 251.6118" transform="matrix(1 0 0 1 0 0)" fill="rgba(184,216,252,0.19)" opacity="1"/><path d="M919.997 366.8458A1 1 0 0 1 917.997 366.8458A1 1 0 0 1 919.997 366.8458" transform="matrix(1 0 0 1 0 0)" fill="rgba(184,216,252,0.5)" opacity="1"/><path d="M860.5386 482.0797A1 1 0 0 1 858.5386 482.0797A1 1 0 0 1 860.5386 482.0797" transform="matrix(1 0 0 1 0 0)" fill="rgba(184,216,252,0.19)" opacity="1"/><path d="M801.0802 597.3137A1 1 0 0 1 799.0802 597.3137A1 1 0 0 1 801.0802 597.3137" transform="matrix(1 0 0 1 0 0)" fill="rgba(184,216,252,0.19)" opacity="1"/><path d="M741.6219 102.5477A1 1 0 0 1 739.6219 102.5477A1 1 0 0 1 741.6219 102.5477" transform="matrix(1 0 0 1 0 0)" fill="rgba(184,216,252,0.5)" opacity="1"/><path d="M682.1635 217.7816A1 1 0 0 1 680.1635 217.7816A1 1 0 0 1 682.1635 217.7816" transform="matrix(1 0 0 1 0 0)" fill="rgba(184,216,252,0.19)" opacity="1"/><path d="M623.5051 333.0156A1.8 1.8 0 0 1 619.9051 333.0156A1.8 1.8 0 0 1 623.5051 333.0156" transform="matrix(1 0 0 1 0 0)" fill="rgba(184,216,252,0.19)" opacity="1"/><path d="M563.2467 448.2496A1 1 0 0 1 561.2467 448.2496A1 1 0 0 1 563.2467 448.2496" transform="matrix(1 0 0 1 0 0)" fill="rgba(184,216,252,0.5)" opacity="1"/><path d="M503.7884 563.4835A1 1 0 0 1 501.7884 563.4835A1 1 0 0 1 503.7884 563.4835" transform="matrix(1 0 0 1 0 0)" fill="rgba(184,216,252,0.19)" opacity="1"/><path d="M444.33 68.7175A1 1 0 0 1 442.33 68.7175A1 1 0 0 1 444.33 68.7175" transform="matrix(1 0 0 1 0 0)" fill="rgba(184,216,252,0.19)" opacity="1"/><path d="M384.8716 183.9515A1 1 0 0 1 382.8716 183.9515A1 1 0 0 1 384.8716 183.9515" transform="matrix(1 0 0 1 0 0)" fill="rgba(184,216,252,0.5)" opacity="1"/><path d="M325.4132 299.1854A1 1 0 0 1 323.4132 299.1854A1 1 0 0 1 325.4132 299.1854" transform="matrix(1 0 0 1 0 0)" fill="rgba(184,216,252,0.19)" opacity="1"/><path d="M265.9549 414.4194A1 1 0 0 1 263.9549 414.4194A1 1 0 0 1 265.9549 414.4194" transform="matrix(1 0 0 1 0 0)" fill="rgba(184,216,252,0.19)" opacity="1"/><path d="M207.2965 529.6534A1.8 1.8 0 0 1 203.6965 529.6534A1.8 1.8 0 0 1 207.2965 529.6534" transform="matrix(1 0 0 1 0 0)" fill="rgba(184,216,252,0.5)" opacity="1"/><path d="M147.0381 34.8873A1 1 0 0 1 145.0381 34.8873A1 1 0 0 1 147.0381 34.8873" transform="matrix(1 0 0 1 0 0)" fill="rgba(184,216,252,0.19)" opacity="1"/><path d="M87.5797 150.1213A1 1 0 0 1 85.5797 150.1213A1 1 0 0 1 87.5797 150.1213" transform="matrix(1 0 0 1 0 0)" fill="rgba(184,216,252,0.19)" opacity="1"/><path d="M28.1214 265.3553A1 1 0 0 1 26.1214 265.3553A1 1 0 0 1 28.1214 265.3553" transform="matrix(1 0 0 1 0 0)" fill="rgba(184,216,252,0.5)" opacity="1"/><path d="M1008.663 380.5893A1 1 0 0 1 1006.663 380.5893A1 1 0 0 1 1008.663 380.5893" transform="matrix(1 0 0 1 0 0)" fill="rgba(184,216,252,0.19)" opacity="1"/><path d="M949.2046 495.8232A1 1 0 0 1 947.2046 495.8232A1 1 0 0 1 949.2046 495.8232" transform="matrix(1 0 0 1 0 0)" fill="rgba(184,216,252,0.19)" opacity="1"/><path d="M0 516L1040 516Q1040 516 1040 516L1040 610Q1040 610 1040 610L0 610Q0 610 0 610L0 516Q0 516 0 516Z" transform="matrix(1 0 0 1 0 0)" fill="#172e3d" opacity="1"/><path d="M0 516L1040 516" transform="matrix(1 0 0 1 0 0)" fill="none" stroke="#3d7684" stroke-width="3" stroke-linecap="round" stroke-linejoin="round" opacity="1"/><text x="38" y="44" transform="matrix(1 0 0 1 0 0)" fill="#eaf2ff" opacity="1" text-anchor="start" dominant-baseline="central" style="font:650 23px system-ui,&quot;Microsoft YaHei&quot;,sans-serif">支线：一级掉头、减速与着陆</text><text x="38" y="76" transform="matrix(1 0 0 1 0 0)" fill="#93abc5" opacity="1" text-anchor="start" dominant-baseline="central" style="font:400 17px system-ui,&quot;Microsoft YaHei&quot;,sans-serif">飞行器近景 · 送卫星去工作</text><path d="M0 0L1040 0Q1040 0 1040 0L1040 610Q1040 610 1040 610L0 610Q0 610 0 610L0 0Q0 0 0 0Z" transform="matrix(1 0 0 1 0 0)" fill="url(#spaceflight-export-gradient-2)" opacity="1"/><path d="M1.8 0A1.8 1.8 0 0 1 -1.8 0A1.8 1.8 0 0 1 1.8 0" transform="matrix(1 0 0 1 0 0)" fill="rgba(184,216,252,0.5)" opacity="1"/><path d="M981.5416 115.234A1 1 0 0 1 979.5416 115.234A1 1 0 0 1 981.5416 115.234" transform="matrix(1 0 0 1 0 0)" fill="rgba(184,216,252,0.19)" opacity="1"/><path d="M922.0832 230.4679A1 1 0 0 1 920.0832 230.4679A1 1 0 0 1 922.0832 230.4679" transform="matrix(1 0 0 1 0 0)" fill="rgba(184,216,252,0.19)" opacity="1"/><path d="M862.6249 345.7019A1 1 0 0 1 860.6249 345.7019A1 1 0 0 1 862.6249 345.7019" transform="matrix(1 0 0 1 0 0)" fill="rgba(184,216,252,0.5)" opacity="1"/><path d="M803.1665 460.9359A1 1 0 0 1 801.1665 460.9359A1 1 0 0 1 803.1665 460.9359" transform="matrix(1 0 0 1 0 0)" fill="rgba(184,216,252,0.19)" opacity="1"/><path d="M743.7081 576.1698A1 1 0 0 1 741.7081 576.1698A1 1 0 0 1 743.7081 576.1698" transform="matrix(1 0 0 1 0 0)" fill="rgba(184,216,252,0.19)" opacity="1"/><path d="M684.2497 81.4038A1 1 0 0 1 682.2497 81.4038A1 1 0 0 1 684.2497 81.4038" transform="matrix(1 0 0 1 0 0)" fill="rgba(184,216,252,0.5)" opacity="1"/><path d="M625.5914 196.6378A1.8 1.8 0 0 1 621.9914 196.6378A1.8 1.8 0 0 1 625.5914 196.6378" transform="matrix(1 0 0 1 0 0)" fill="rgba(184,216,252,0.19)" opacity="1"/><path d="M565.333 311.8718A1 1 0 0 1 563.333 311.8718A1 1 0 0 1 565.333 311.8718" transform="matrix(1 0 0 1 0 0)" fill="rgba(184,216,252,0.19)" opacity="1"/><path d="M505.8746 427.1057A1 1 0 0 1 503.8746 427.1057A1 1 0 0 1 505.8746 427.1057" transform="matrix(1 0 0 1 0 0)" fill="rgba(184,216,252,0.5)" opacity="1"/><path d="M446.4162 542.3397A1 1 0 0 1 444.4162 542.3397A1 1 0 0 1 446.4162 542.3397" transform="matrix(1 0 0 1 0 0)" fill="rgba(184,216,252,0.19)" opacity="1"/><path d="M386.9579 47.5737A1 1 0 0 1 384.9579 47.5737A1 1 0 0 1 386.9579 47.5737" transform="matrix(1 0 0 1 0 0)" fill="rgba(184,216,252,0.19)" opacity="1"/><path d="M327.4995 162.8076A1 1 0 0 1 325.4995 162.8076A1 1 0 0 1 327.4995 162.8076" transform="matrix(1 0 0 1 0 0)" fill="rgba(184,216,252,0.5)" opacity="1"/><path d="M268.0411 278.0416A1 1 0 0 1 266.0411 278.0416A1 1 0 0 1 268.0411 278.0416" transform="matrix(1 0 0 1 0 0)" fill="rgba(184,216,252,0.19)" opacity="1"/><path d="M209.3827 393.2756A1.8 1.8 0 0 1 205.7827 393.2756A1.8 1.8 0 0 1 209.3827 393.2756" transform="matrix(1 0 0 1 0 0)" fill="rgba(184,216,252,0.19)" opacity="1"/><path d="M149.1244 508.5095A1 1 0 0 1 147.1244 508.5095A1 1 0 0 1 149.1244 508.5095" transform="matrix(1 0 0 1 0 0)" fill="rgba(184,216,252,0.5)" opacity="1"/><path d="M89.666 13.7435A1 1 0 0 1 87.666 13.7435A1 1 0 0 1 89.666 13.7435" transform="matrix(1 0 0 1 0 0)" fill="rgba(184,216,252,0.19)" opacity="1"/><path d="M30.2076 128.9775A1 1 0 0 1 28.2076 128.9775A1 1 0 0 1 30.2076 128.9775" transform="matrix(1 0 0 1 0 0)" fill="rgba(184,216,252,0.19)" opacity="1"/><path d="M1010.7492 244.2114A1 1 0 0 1 1008.7492 244.2114A1 1 0 0 1 1010.7492 244.2114" transform="matrix(1 0 0 1 0 0)" fill="rgba(184,216,252,0.5)" opacity="1"/><path d="M951.2909 359.4454A1 1 0 0 1 949.2909 359.4454A1 1 0 0 1 951.2909 359.4454" transform="matrix(1 0 0 1 0 0)" fill="rgba(184,216,252,0.19)" opacity="1"/><path d="M891.8325 474.6794A1 1 0 0 1 889.8325 474.6794A1 1 0 0 1 891.8325 474.6794" transform="matrix(1 0 0 1 0 0)" fill="rgba(184,216,252,0.19)" opacity="1"/><path d="M833.1741 589.9133A1.8 1.8 0 0 1 829.5741 589.9133A1.8 1.8 0 0 1 833.1741 589.9133" transform="matrix(1 0 0 1 0 0)" fill="rgba(184,216,252,0.5)" opacity="1"/><path d="M772.9157 95.1473A1 1 0 0 1 770.9157 95.1473A1 1 0 0 1 772.9157 95.1473" transform="matrix(1 0 0 1 0 0)" fill="rgba(184,216,252,0.19)" opacity="1"/><path d="M713.4574 210.3813A1 1 0 0 1 711.4574 210.3813A1 1 0 0 1 713.4574 210.3813" transform="matrix(1 0 0 1 0 0)" fill="rgba(184,216,252,0.19)" opacity="1"/><path d="M653.999 325.6153A1 1 0 0 1 651.999 325.6153A1 1 0 0 1 653.999 325.6153" transform="matrix(1 0 0 1 0 0)" fill="rgba(184,216,252,0.5)" opacity="1"/><path d="M594.5406 440.8492A1 1 0 0 1 592.5406 440.8492A1 1 0 0 1 594.5406 440.8492" transform="matrix(1 0 0 1 0 0)" fill="rgba(184,216,252,0.19)" opacity="1"/><path d="M535.0822 556.0832A1 1 0 0 1 533.0822 556.0832A1 1 0 0 1 535.0822 556.0832" transform="matrix(1 0 0 1 0 0)" fill="rgba(184,216,252,0.19)" opacity="1"/><path d="M475.6239 61.3172A1 1 0 0 1 473.6239 61.3172A1 1 0 0 1 475.6239 61.3172" transform="matrix(1 0 0 1 0 0)" fill="rgba(184,216,252,0.5)" opacity="1"/><path d="M416.9655 176.5511A1.8 1.8 0 0 1 413.3655 176.5511A1.8 1.8 0 0 1 416.9655 176.5511" transform="matrix(1 0 0 1 0 0)" fill="rgba(184,216,252,0.19)" opacity="1"/><path d="M356.7071 291.7851A1 1 0 0 1 354.7071 291.7851A1 1 0 0 1 356.7071 291.7851" transform="matrix(1 0 0 1 0 0)" fill="rgba(184,216,252,0.19)" opacity="1"/><path d="M297.2487 407.0191A1 1 0 0 1 295.2487 407.0191A1 1 0 0 1 297.2487 407.0191" transform="matrix(1 0 0 1 0 0)" fill="rgba(184,216,252,0.5)" opacity="1"/><path d="M237.7904 522.253A1 1 0 0 1 235.7904 522.253A1 1 0 0 1 237.7904 522.253" transform="matrix(1 0 0 1 0 0)" fill="rgba(184,216,252,0.19)" opacity="1"/><path d="M178.332 27.487A1 1 0 0 1 176.332 27.487A1 1 0 0 1 178.332 27.487" transform="matrix(1 0 0 1 0 0)" fill="rgba(184,216,252,0.19)" opacity="1"/><path d="M118.8736 142.721A1 1 0 0 1 116.8736 142.721A1 1 0 0 1 118.8736 142.721" transform="matrix(1 0 0 1 0 0)" fill="rgba(184,216,252,0.5)" opacity="1"/><path d="M59.4152 257.9549A1 1 0 0 1 57.4152 257.9549A1 1 0 0 1 59.4152 257.9549" transform="matrix(1 0 0 1 0 0)" fill="rgba(184,216,252,0.19)" opacity="1"/><path d="M1040.7569 373.1889A1.8 1.8 0 0 1 1037.1569 373.1889A1.8 1.8 0 0 1 1040.7569 373.1889" transform="matrix(1 0 0 1 0 0)" fill="rgba(184,216,252,0.19)" opacity="1"/><path d="M980.4985 488.4229A1 1 0 0 1 978.4985 488.4229A1 1 0 0 1 980.4985 488.4229" transform="matrix(1 0 0 1 0 0)" fill="rgba(184,216,252,0.5)" opacity="1"/><path d="M921.0401 603.6568A1 1 0 0 1 919.0401 603.6568A1 1 0 0 1 921.0401 603.6568" transform="matrix(1 0 0 1 0 0)" fill="rgba(184,216,252,0.19)" opacity="1"/><path d="M861.5817 108.8908A1 1 0 0 1 859.5817 108.8908A1 1 0 0 1 861.5817 108.8908" transform="matrix(1 0 0 1 0 0)" fill="rgba(184,216,252,0.19)" opacity="1"/><path d="M802.1234 224.1248A1 1 0 0 1 800.1234 224.1248A1 1 0 0 1 802.1234 224.1248" transform="matrix(1 0 0 1 0 0)" fill="rgba(184,216,252,0.5)" opacity="1"/><path d="M742.665 339.3588A1 1 0 0 1 740.665 339.3588A1 1 0 0 1 742.665 339.3588" transform="matrix(1 0 0 1 0 0)" fill="rgba(184,216,252,0.19)" opacity="1"/><path d="M683.2066 454.5927A1 1 0 0 1 681.2066 454.5927A1 1 0 0 1 683.2066 454.5927" transform="matrix(1 0 0 1 0 0)" fill="rgba(184,216,252,0.19)" opacity="1"/><path d="M624.5482 569.8267A1.8 1.8 0 0 1 620.9482 569.8267A1.8 1.8 0 0 1 624.5482 569.8267" transform="matrix(1 0 0 1 0 0)" fill="rgba(184,216,252,0.5)" opacity="1"/><path d="M564.2899 75.0607A1 1 0 0 1 562.2899 75.0607A1 1 0 0 1 564.2899 75.0607" transform="matrix(1 0 0 1 0 0)" fill="rgba(184,216,252,0.19)" opacity="1"/><path d="M504.8315 190.2946A1 1 0 0 1 502.8315 190.2946A1 1 0 0 1 504.8315 190.2946" transform="matrix(1 0 0 1 0 0)" fill="rgba(184,216,252,0.19)" opacity="1"/><path d="M445.3731 305.5286A1 1 0 0 1 443.3731 305.5286A1 1 0 0 1 445.3731 305.5286" transform="matrix(1 0 0 1 0 0)" fill="rgba(184,216,252,0.5)" opacity="1"/><path d="M385.9147 420.7626A1 1 0 0 1 383.9147 420.7626A1 1 0 0 1 385.9147 420.7626" transform="matrix(1 0 0 1 0 0)" fill="rgba(184,216,252,0.19)" opacity="1"/><path d="M326.4564 535.9965A1 1 0 0 1 324.4564 535.9965A1 1 0 0 1 326.4564 535.9965" transform="matrix(1 0 0 1 0 0)" fill="rgba(184,216,252,0.19)" opacity="1"/><path d="M266.998 41.2305A1 1 0 0 1 264.998 41.2305A1 1 0 0 1 266.998 41.2305" transform="matrix(1 0 0 1 0 0)" fill="rgba(184,216,252,0.5)" opacity="1"/><path d="M208.3396 156.4645A1.8 1.8 0 0 1 204.7396 156.4645A1.8 1.8 0 0 1 208.3396 156.4645" transform="matrix(1 0 0 1 0 0)" fill="rgba(184,216,252,0.19)" opacity="1"/><path d="M148.0812 271.6984A1 1 0 0 1 146.0812 271.6984A1 1 0 0 1 148.0812 271.6984" transform="matrix(1 0 0 1 0 0)" fill="rgba(184,216,252,0.19)" opacity="1"/><path d="M88.6229 386.9324A1 1 0 0 1 86.6229 386.9324A1 1 0 0 1 88.6229 386.9324" transform="matrix(1 0 0 1 0 0)" fill="rgba(184,216,252,0.5)" opacity="1"/><path d="M29.1645 502.1664A1 1 0 0 1 27.1645 502.1664A1 1 0 0 1 29.1645 502.1664" transform="matrix(1 0 0 1 0 0)" fill="rgba(184,216,252,0.19)" opacity="1"/><path d="M1009.7061 7.4003A1 1 0 0 1 1007.7061 7.4003A1 1 0 0 1 1009.7061 7.4003" transform="matrix(1 0 0 1 0 0)" fill="rgba(184,216,252,0.19)" opacity="1"/><path d="M950.2477 122.6343A1 1 0 0 1 948.2477 122.6343A1 1 0 0 1 950.2477 122.6343" transform="matrix(1 0 0 1 0 0)" fill="rgba(184,216,252,0.5)" opacity="1"/><path d="M890.7894 237.8683A1 1 0 0 1 888.7894 237.8683A1 1 0 0 1 890.7894 237.8683" transform="matrix(1 0 0 1 0 0)" fill="rgba(184,216,252,0.19)" opacity="1"/><path d="M832.131 353.1023A1.8 1.8 0 0 1 828.531 353.1023A1.8 1.8 0 0 1 832.131 353.1023" transform="matrix(1 0 0 1 0 0)" fill="rgba(184,216,252,0.19)" opacity="1"/><path d="M771.8726 468.3362A1 1 0 0 1 769.8726 468.3362A1 1 0 0 1 771.8726 468.3362" transform="matrix(1 0 0 1 0 0)" fill="rgba(184,216,252,0.5)" opacity="1"/><path d="M712.4142 583.5702A1 1 0 0 1 710.4142 583.5702A1 1 0 0 1 712.4142 583.5702" transform="matrix(1 0 0 1 0 0)" fill="rgba(184,216,252,0.19)" opacity="1"/><path d="M652.9559 88.8042A1 1 0 0 1 650.9559 88.8042A1 1 0 0 1 652.9559 88.8042" transform="matrix(1 0 0 1 0 0)" fill="rgba(184,216,252,0.19)" opacity="1"/><path d="M593.4975 204.0381A1 1 0 0 1 591.4975 204.0381A1 1 0 0 1 593.4975 204.0381" transform="matrix(1 0 0 1 0 0)" fill="rgba(184,216,252,0.5)" opacity="1"/><path d="M534.0391 319.2721A1 1 0 0 1 532.0391 319.2721A1 1 0 0 1 534.0391 319.2721" transform="matrix(1 0 0 1 0 0)" fill="rgba(184,216,252,0.19)" opacity="1"/><path d="M474.5807 434.5061A1 1 0 0 1 472.5807 434.5061A1 1 0 0 1 474.5807 434.5061" transform="matrix(1 0 0 1 0 0)" fill="rgba(184,216,252,0.19)" opacity="1"/><path d="M415.9224 549.74A1.8 1.8 0 0 1 412.3224 549.74A1.8 1.8 0 0 1 415.9224 549.74" transform="matrix(1 0 0 1 0 0)" fill="rgba(184,216,252,0.5)" opacity="1"/><path d="M355.664 54.974A1 1 0 0 1 353.664 54.974A1 1 0 0 1 355.664 54.974" transform="matrix(1 0 0 1 0 0)" fill="rgba(184,216,252,0.19)" opacity="1"/><path d="M296.2056 170.208A1 1 0 0 1 294.2056 170.208A1 1 0 0 1 296.2056 170.208" transform="matrix(1 0 0 1 0 0)" fill="rgba(184,216,252,0.19)" opacity="1"/><path d="M236.7472 285.4419A1 1 0 0 1 234.7472 285.4419A1 1 0 0 1 236.7472 285.4419" transform="matrix(1 0 0 1 0 0)" fill="rgba(184,216,252,0.5)" opacity="1"/><path d="M177.2889 400.6759A1 1 0 0 1 175.2889 400.6759A1 1 0 0 1 177.2889 400.6759" transform="matrix(1 0 0 1 0 0)" fill="rgba(184,216,252,0.19)" opacity="1"/><path d="M117.8305 515.9099A1 1 0 0 1 115.8305 515.9099A1 1 0 0 1 117.8305 515.9099" transform="matrix(1 0 0 1 0 0)" fill="rgba(184,216,252,0.19)" opacity="1"/><path d="M58.3721 21.1438A1 1 0 0 1 56.3721 21.1438A1 1 0 0 1 58.3721 21.1438" transform="matrix(1 0 0 1 0 0)" fill="rgba(184,216,252,0.5)" opacity="1"/><path d="M1039.7137 136.3778A1.8 1.8 0 0 1 1036.1137 136.3778A1.8 1.8 0 0 1 1039.7137 136.3778" transform="matrix(1 0 0 1 0 0)" fill="rgba(184,216,252,0.19)" opacity="1"/><path d="M979.4554 251.6118A1 1 0 0 1 977.4554 251.6118A1 1 0 0 1 979.4554 251.6118" transform="matrix(1 0 0 1 0 0)" fill="rgba(184,216,252,0.19)" opacity="1"/><path d="M919.997 366.8458A1 1 0 0 1 917.997 366.8458A1 1 0 0 1 919.997 366.8458" transform="matrix(1 0 0 1 0 0)" fill="rgba(184,216,252,0.5)" opacity="1"/><path d="M860.5386 482.0797A1 1 0 0 1 858.5386 482.0797A1 1 0 0 1 860.5386 482.0797" transform="matrix(1 0 0 1 0 0)" fill="rgba(184,216,252,0.19)" opacity="1"/><path d="M801.0802 597.3137A1 1 0 0 1 799.0802 597.3137A1 1 0 0 1 801.0802 597.3137" transform="matrix(1 0 0 1 0 0)" fill="rgba(184,216,252,0.19)" opacity="1"/><path d="M741.6219 102.5477A1 1 0 0 1 739.6219 102.5477A1 1 0 0 1 741.6219 102.5477" transform="matrix(1 0 0 1 0 0)" fill="rgba(184,216,252,0.5)" opacity="1"/><path d="M682.1635 217.7816A1 1 0 0 1 680.1635 217.7816A1 1 0 0 1 682.1635 217.7816" transform="matrix(1 0 0 1 0 0)" fill="rgba(184,216,252,0.19)" opacity="1"/><path d="M623.5051 333.0156A1.8 1.8 0 0 1 619.9051 333.0156A1.8 1.8 0 0 1 623.5051 333.0156" transform="matrix(1 0 0 1 0 0)" fill="rgba(184,216,252,0.19)" opacity="1"/><path d="M563.2467 448.2496A1 1 0 0 1 561.2467 448.2496A1 1 0 0 1 563.2467 448.2496" transform="matrix(1 0 0 1 0 0)" fill="rgba(184,216,252,0.5)" opacity="1"/><path d="M503.7884 563.4835A1 1 0 0 1 501.7884 563.4835A1 1 0 0 1 503.7884 563.4835" transform="matrix(1 0 0 1 0 0)" fill="rgba(184,216,252,0.19)" opacity="1"/><path d="M444.33 68.7175A1 1 0 0 1 442.33 68.7175A1 1 0 0 1 444.33 68.7175" transform="matrix(1 0 0 1 0 0)" fill="rgba(184,216,252,0.19)" opacity="1"/><path d="M384.8716 183.9515A1 1 0 0 1 382.8716 183.9515A1 1 0 0 1 384.8716 183.9515" transform="matrix(1 0 0 1 0 0)" fill="rgba(184,216,252,0.5)" opacity="1"/><path d="M325.4132 299.1854A1 1 0 0 1 323.4132 299.1854A1 1 0 0 1 325.4132 299.1854" transform="matrix(1 0 0 1 0 0)" fill="rgba(184,216,252,0.19)" opacity="1"/><path d="M265.9549 414.4194A1 1 0 0 1 263.9549 414.4194A1 1 0 0 1 265.9549 414.4194" transform="matrix(1 0 0 1 0 0)" fill="rgba(184,216,252,0.19)" opacity="1"/><path d="M207.2965 529.6534A1.8 1.8 0 0 1 203.6965 529.6534A1.8 1.8 0 0 1 207.2965 529.6534" transform="matrix(1 0 0 1 0 0)" fill="rgba(184,216,252,0.5)" opacity="1"/><path d="M147.0381 34.8873A1 1 0 0 1 145.0381 34.8873A1 1 0 0 1 147.0381 34.8873" transform="matrix(1 0 0 1 0 0)" fill="rgba(184,216,252,0.19)" opacity="1"/><path d="M87.5797 150.1213A1 1 0 0 1 85.5797 150.1213A1 1 0 0 1 87.5797 150.1213" transform="matrix(1 0 0 1 0 0)" fill="rgba(184,216,252,0.19)" opacity="1"/><path d="M28.1214 265.3553A1 1 0 0 1 26.1214 265.3553A1 1 0 0 1 28.1214 265.3553" transform="matrix(1 0 0 1 0 0)" fill="rgba(184,216,252,0.5)" opacity="1"/><path d="M1008.663 380.5893A1 1 0 0 1 1006.663 380.5893A1 1 0 0 1 1008.663 380.5893" transform="matrix(1 0 0 1 0 0)" fill="rgba(184,216,252,0.19)" opacity="1"/><path d="M949.2046 495.8232A1 1 0 0 1 947.2046 495.8232A1 1 0 0 1 949.2046 495.8232" transform="matrix(1 0 0 1 0 0)" fill="rgba(184,216,252,0.19)" opacity="1"/><text x="38" y="44" transform="matrix(1 0 0 1 0 0)" fill="#eaf2ff" opacity="1" text-anchor="start" dominant-baseline="central" style="font:650 23px system-ui,&quot;Microsoft YaHei&quot;,sans-serif">猎鹰9 · 掉头与海上回收</text><text x="38" y="76" transform="matrix(1 0 0 1 0 0)" fill="#93abc5" opacity="1" text-anchor="start" dominant-baseline="central" style="font:400 17px system-ui,&quot;Microsoft YaHei&quot;,sans-serif">01 / 08  分离，二级继续推进</text><path d="M0 519L1040 519Q1040 519 1040 519L1040 610Q1040 610 1040 610L0 610Q0 610 0 610L0 519Q0 519 0 519Z" transform="matrix(1 0 0 1 0 0)" fill="#144563" opacity="0"/><path d="M0 538L38 538" transform="matrix(1 0 0 1 0 0)" fill="none" stroke="#80c9db55" stroke-width="2" stroke-linecap="round" stroke-linejoin="round" opacity="0"/><path d="M79 557L117 557" transform="matrix(1 0 0 1 0 0)" fill="none" stroke="#80c9db55" stroke-width="2" stroke-linecap="round" stroke-linejoin="round" opacity="0"/><path d="M158 576L196 576" transform="matrix(1 0 0 1 0 0)" fill="none" stroke="#80c9db55" stroke-width="2" stroke-linecap="round" stroke-linejoin="round" opacity="0"/><path d="M237 538L275 538" transform="matrix(1 0 0 1 0 0)" fill="none" stroke="#80c9db55" stroke-width="2" stroke-linecap="round" stroke-linejoin="round" opacity="0"/><path d="M316 557L354 557" transform="matrix(1 0 0 1 0 0)" fill="none" stroke="#80c9db55" stroke-width="2" stroke-linecap="round" stroke-linejoin="round" opacity="0"/><path d="M395 576L433 576" transform="matrix(1 0 0 1 0 0)" fill="none" stroke="#80c9db55" stroke-width="2" stroke-linecap="round" stroke-linejoin="round" opacity="0"/><path d="M474 538L512 538" transform="matrix(1 0 0 1 0 0)" fill="none" stroke="#80c9db55" stroke-width="2" stroke-linecap="round" stroke-linejoin="round" opacity="0"/><path d="M553 557L591 557" transform="matrix(1 0 0 1 0 0)" fill="none" stroke="#80c9db55" stroke-width="2" stroke-linecap="round" stroke-linejoin="round" opacity="0"/><path d="M632 576L670 576" transform="matrix(1 0 0 1 0 0)" fill="none" stroke="#80c9db55" stroke-width="2" stroke-linecap="round" stroke-linejoin="round" opacity="0"/><path d="M711 538L749 538" transform="matrix(1 0 0 1 0 0)" fill="none" stroke="#80c9db55" stroke-width="2" stroke-linecap="round" stroke-linejoin="round" opacity="0"/><path d="M790 557L828 557" transform="matrix(1 0 0 1 0 0)" fill="none" stroke="#80c9db55" stroke-width="2" stroke-linecap="round" stroke-linejoin="round" opacity="0"/><path d="M869 576L907 576" transform="matrix(1 0 0 1 0 0)" fill="none" stroke="#80c9db55" stroke-width="2" stroke-linecap="round" stroke-linejoin="round" opacity="0"/><path d="M948 538L986 538" transform="matrix(1 0 0 1 0 0)" fill="none" stroke="#80c9db55" stroke-width="2" stroke-linecap="round" stroke-linejoin="round" opacity="0"/><path d="M1027 557L1065 557" transform="matrix(1 0 0 1 0 0)" fill="none" stroke="#80c9db55" stroke-width="2" stroke-linecap="round" stroke-linejoin="round" opacity="0"/><path d="M330 510L655 510Q658 510 658 513L658 520Q658 523 655 523L330 523Q327 523 327 520L327 513Q327 510 330 510Z" transform="matrix(1 0 0 1 0 0)" fill="#bacbd3" opacity="0"/><path d="M346 523L641 523Q645 523 645 527L645 541Q645 545 641 545L346 545Q342 545 342 541L342 527Q342 523 346 523Z" transform="matrix(1 0 0 1 0 0)" fill="#355571" opacity="0"/><path d="M-20 -208L20 -208Q25 -208 25 -203L25 -5Q25 0 20 0L-20 0Q-25 0 -25 -5L-25 -203Q-25 -208 -20 -208Z" transform="matrix(0.471 0.7669 -0.7669 0.471 342.7427 373.4871)" fill="url(#spaceflight-export-gradient-3)" opacity="1"/><path d="M-20 -208L20 -208Q25 -208 25 -203L25 -5Q25 0 20 0L-20 0Q-25 0 -25 -5L-25 -203Q-25 -208 -20 -208Z" transform="matrix(0.471 0.7669 -0.7669 0.471 342.7427 373.4871)" fill="none" stroke="#92aabc" stroke-width="1.5" stroke-linecap="round" stroke-linejoin="round" opacity="1"/><path d="M-22 -28L22 -28Q25 -28 25 -25L25 -4Q25 -1 22 -1L-22 -1Q-25 -1 -25 -4L-25 -25Q-25 -28 -22 -28Z" transform="matrix(0.471 0.7669 -0.7669 0.471 342.7427 373.4871)" fill="#203c53" opacity="1"/><path d="M-24 -191L24 -191" transform="matrix(0.471 0.7669 -0.7669 0.471 342.7427 373.4871)" fill="none" stroke="#9db7c5" stroke-width="1" stroke-linecap="round" stroke-linejoin="round" opacity="1"/><path d="M-24 -156L24 -156" transform="matrix(0.471 0.7669 -0.7669 0.471 342.7427 373.4871)" fill="none" stroke="#9db7c5" stroke-width="1" stroke-linecap="round" stroke-linejoin="round" opacity="1"/><path d="M-24 -44L24 -44" transform="matrix(0.471 0.7669 -0.7669 0.471 342.7427 373.4871)" fill="none" stroke="#9db7c5" stroke-width="1" stroke-linecap="round" stroke-linejoin="round" opacity="1"/><path d="M16 -191L16 -47" transform="matrix(0.471 0.7669 -0.7669 0.471 342.7427 373.4871)" fill="none" stroke="#bed1d9" stroke-width="2" stroke-linecap="round" stroke-linejoin="round" opacity="1"/><text x="0" y="-112" transform="matrix(0.471 0.7669 -0.7669 0.471 342.7427 373.4871)" fill="#39566a" opacity="1" text-anchor="middle" dominant-baseline="central" style="font:750 9px system-ui,&quot;Microsoft YaHei&quot;,sans-serif">FALCON</text><path d="M-33 -190L-27 -190Q-25 -190 -25 -188L-25 -172Q-25 -170 -27 -170L-33 -170Q-35 -170 -35 -172L-35 -188Q-35 -190 -33 -190Z" transform="matrix(0.471 0.7669 -0.7669 0.471 342.7427 373.4871)" fill="#527b92" opacity="1"/><path d="M-33 -190L-27 -190Q-25 -190 -25 -188L-25 -172Q-25 -170 -27 -170L-33 -170Q-35 -170 -35 -172L-35 -188Q-35 -190 -33 -190Z" transform="matrix(0.471 0.7669 -0.7669 0.471 342.7427 373.4871)" fill="none" stroke="#97bcc9" stroke-width="1.5" stroke-linecap="round" stroke-linejoin="round" opacity="1"/><path d="M27 -190L33 -190Q35 -190 35 -188L35 -172Q35 -170 33 -170L27 -170Q25 -170 25 -172L25 -188Q25 -190 27 -190Z" transform="matrix(0.471 0.7669 -0.7669 0.471 342.7427 373.4871)" fill="#527b92" opacity="1"/><path d="M27 -190L33 -190Q35 -190 35 -188L35 -172Q35 -170 33 -170L27 -170Q25 -170 25 -172L25 -188Q25 -190 27 -190Z" transform="matrix(0.471 0.7669 -0.7669 0.471 342.7427 373.4871)" fill="none" stroke="#97bcc9" stroke-width="1.5" stroke-linecap="round" stroke-linejoin="round" opacity="1"/><path d="M-20 0L-22 12L-8 12L-10 0Z" transform="matrix(0.471 0.7669 -0.7669 0.471 342.7427 373.4871)" fill="#657e91" opacity="1"/><path d="M-5 0L-7 12L7 12L5 0Z" transform="matrix(0.471 0.7669 -0.7669 0.471 342.7427 373.4871)" fill="#657e91" opacity="1"/><path d="M10 0L8 12L22 12L20 0Z" transform="matrix(0.471 0.7669 -0.7669 0.471 342.7427 373.4871)" fill="#657e91" opacity="1"/><path d="M-21 -203L21 -203Q23 -203 23 -201L23 -196Q23 -194 21 -194L-21 -194Q-23 -194 -23 -196L-23 -201Q-23 -203 -21 -203Z" transform="matrix(0.471 0.7669 -0.7669 0.471 342.7427 373.4871)" fill="#dba76b" opacity="1"/><path d="M-11.4 0L-19 19L19 19L11.4 0Z" transform="matrix(0.471 0.7669 -0.7669 0.471 534.872 255.4809)" fill="#597486" opacity="1"/><path d="M-11.4 0L-19 19L19 19L11.4 0Z" transform="matrix(0.471 0.7669 -0.7669 0.471 534.872 255.4809)" fill="none" stroke="#a5b9c5" stroke-width="2" stroke-linecap="round" stroke-linejoin="round" opacity="1"/><path d="M-10 20L10 20L7 58.4L0 69.1774L-7 58.4Z" transform="matrix(0.471 0.7669 -0.7669 0.471 534.872 255.4809)" fill="url(#spaceflight-export-gradient-4)" opacity="1"/><path d="M-21 -104L21 -104Q25 -104 25 -100L25 -4Q25 0 21 0L-21 0Q-25 0 -25 -4L-25 -100Q-25 -104 -21 -104Z" transform="matrix(0.471 0.7669 -0.7669 0.471 534.872 255.4809)" fill="url(#spaceflight-export-gradient-5)" opacity="1"/><path d="M-21 -104L21 -104Q25 -104 25 -100L25 -4Q25 0 21 0L-21 0Q-25 0 -25 -4L-25 -100Q-25 -104 -21 -104Z" transform="matrix(0.471 0.7669 -0.7669 0.471 534.872 255.4809)" fill="none" stroke="#93adbd" stroke-width="1.5" stroke-linecap="round" stroke-linejoin="round" opacity="1"/><path d="M-25 -24L25 -24Q25 -24 25 -24L25 -8Q25 -8 25 -8L-25 -8Q-25 -8 -25 -8L-25 -24Q-25 -24 -25 -24Z" transform="matrix(0.471 0.7669 -0.7669 0.471 534.872 255.4809)" fill="#273f55" opacity="1"/><path d="M-24 -91L24 -91" transform="matrix(0.471 0.7669 -0.7669 0.471 534.872 255.4809)" fill="none" stroke="#afc2ca" stroke-width="2" stroke-linecap="round" stroke-linejoin="round" opacity="1"/><path d="M-24 -55L24 -55" transform="matrix(0.471 0.7669 -0.7669 0.471 534.872 255.4809)" fill="none" stroke="#afc2ca" stroke-width="2" stroke-linecap="round" stroke-linejoin="round" opacity="1"/><path d="M16 -93L16 -30" transform="matrix(0.471 0.7669 -0.7669 0.471 534.872 255.4809)" fill="none" stroke="#a8bec8" stroke-width="2" stroke-linecap="round" stroke-linejoin="round" opacity="1"/><path d="M-18 -27L18 -27Q24 -27 24 -21L24 21Q24 27 18 27L-18 27Q-24 27 -24 21L-24 -21Q-24 -27 -18 -27Z" transform="matrix(0.3391 0.5522 -0.5522 0.3391 629.5378 197.3371)" fill="#e7bd73" opacity="1"/><path d="M-18 -27L18 -27Q24 -27 24 -21L24 21Q24 27 18 27L-18 27Q-24 27 -24 21L-24 -21Q-24 -27 -18 -27Z" transform="matrix(0.3391 0.5522 -0.5522 0.3391 629.5378 197.3371)" fill="none" stroke="#fff0c6" stroke-width="1.5" stroke-linecap="round" stroke-linejoin="round" opacity="1"/><path d="M11 0A11 11 0 0 1 -11 0A11 11 0 0 1 11 0" transform="matrix(0.3391 0.5522 -0.5522 0.3391 629.5378 197.3371)" fill="#688b9e" opacity="1"/><path d="M11 0A11 11 0 0 1 -11 0A11 11 0 0 1 11 0" transform="matrix(0.3391 0.5522 -0.5522 0.3391 629.5378 197.3371)" fill="none" stroke="#f8daa7" stroke-width="2" stroke-linecap="round" stroke-linejoin="round" opacity="1"/><path d="M-15 -20A2 2 0 0 1 -19 -20A2 2 0 0 1 -15 -20" transform="matrix(0.3391 0.5522 -0.5522 0.3391 629.5378 197.3371)" fill="#fff2c9" opacity="1"/><path d="M19 -20A2 2 0 0 1 15 -20A2 2 0 0 1 19 -20" transform="matrix(0.3391 0.5522 -0.5522 0.3391 629.5378 197.3371)" fill="#fff2c9" opacity="1"/><path d="M-15 20A2 2 0 0 1 -19 20A2 2 0 0 1 -15 20" transform="matrix(0.3391 0.5522 -0.5522 0.3391 629.5378 197.3371)" fill="#fff2c9" opacity="1"/><path d="M19 20A2 2 0 0 1 15 20A2 2 0 0 1 19 20" transform="matrix(0.3391 0.5522 -0.5522 0.3391 629.5378 197.3371)" fill="#fff2c9" opacity="1"/><path d="M-7 12L7 12Q9 12 9 14L9 19Q9 21 7 21L-7 21Q-9 21 -9 19L-9 14Q-9 12 -7 12Z" transform="matrix(0.3391 0.5522 -0.5522 0.3391 629.5378 197.3371)" fill="#80653d" opacity="1"/><path d="M-18 -21L18 -21" transform="matrix(0.3391 0.5522 -0.5522 0.3391 629.5378 197.3371)" fill="none" stroke="#b18849" stroke-width="2" stroke-linecap="round" stroke-linejoin="round" opacity="1"/><path d="M-24 0L-40 0" transform="matrix(0.3391 0.5522 -0.5522 0.3391 629.5378 197.3371)" fill="none" stroke="#e5ddb4" stroke-width="4" stroke-linecap="round" stroke-linejoin="round" opacity="1"/><path d="M24 0L40 0" transform="matrix(0.3391 0.5522 -0.5522 0.3391 629.5378 197.3371)" fill="none" stroke="#e5ddb4" stroke-width="4" stroke-linecap="round" stroke-linejoin="round" opacity="1"/><path d="M0 -27L12 -50" transform="matrix(0.3391 0.5522 -0.5522 0.3391 629.5378 197.3371)" fill="none" stroke="#f2dfa3" stroke-width="3" stroke-linecap="round" stroke-linejoin="round" opacity="1"/><path d="M16 -52A4 4 0 0 1 8 -52A4 4 0 0 1 16 -52" transform="matrix(0.3391 0.5522 -0.5522 0.3391 629.5378 197.3371)" fill="#ffc58a" opacity="1"/><path d="M0 -139L-21 -116L-35 -77L-35 -1L0 -1Z" transform="matrix(0.471 0.7669 -0.7669 0.471 614.6293 206.4939)" fill="#eaf0f1" opacity="1"/><path d="M0 -139L-21 -116L-35 -77L-35 -1L0 -1Z" transform="matrix(0.471 0.7669 -0.7669 0.471 614.6293 206.4939)" fill="none" stroke="#93aebe" stroke-width="2" stroke-linecap="round" stroke-linejoin="round" opacity="1"/><path d="M-2 -17L-34 -17" transform="matrix(0.471 0.7669 -0.7669 0.471 614.6293 206.4939)" fill="none" stroke="#78a597" stroke-width="5" stroke-linecap="round" stroke-linejoin="round" opacity="1"/><path d="M-20 -111L-27 -88" transform="matrix(0.471 0.7669 -0.7669 0.471 614.6293 206.4939)" fill="none" stroke="#faffff" stroke-width="2" stroke-linecap="round" stroke-linejoin="round" opacity="1"/><path d="M0 -139L21 -116L35 -77L35 -1L0 -1Z" transform="matrix(0.471 0.7669 -0.7669 0.471 614.6293 206.4939)" fill="#eaf0f1" opacity="1"/><path d="M0 -139L21 -116L35 -77L35 -1L0 -1Z" transform="matrix(0.471 0.7669 -0.7669 0.471 614.6293 206.4939)" fill="none" stroke="#93aebe" stroke-width="2" stroke-linecap="round" stroke-linejoin="round" opacity="1"/><path d="M2 -17L34 -17" transform="matrix(0.471 0.7669 -0.7669 0.471 614.6293 206.4939)" fill="none" stroke="#78a597" stroke-width="5" stroke-linecap="round" stroke-linejoin="round" opacity="1"/><path d="M20 -111L27 -88" transform="matrix(0.471 0.7669 -0.7669 0.471 614.6293 206.4939)" fill="none" stroke="#faffff" stroke-width="2" stroke-linecap="round" stroke-linejoin="round" opacity="1"/><path d="M213 276L285.029 234.7589" transform="matrix(1 0 0 1 0 0)" fill="none" stroke="#ffc58a" stroke-width="3" stroke-linecap="round" stroke-linejoin="round" opacity="1"/><path d="M285.029 234.7589L278.8107 243.8327L274.0559 235.5283Z" transform="matrix(1 0 0 1 0 0)" fill="#ffc58a" opacity="1"/><text x="214" y="382" transform="matrix(1 0 0 1 0 0)" fill="#ffc58a" opacity="1" text-anchor="middle" dominant-baseline="central" style="font:400 18px system-ui,&quot;Microsoft YaHei&quot;,sans-serif">运动方向</text><path d="M741 111L991 111Q1005 111 1005 125L1005 286Q1005 300 991 300L741 300Q727 300 727 286L727 125Q727 111 741 111Z" transform="matrix(1 0 0 1 0 0)" fill="#102b40" opacity="1"/><path d="M741 111L991 111Q1005 111 1005 125L1005 286Q1005 300 991 300L741 300Q727 300 727 286L727 125Q727 111 741 111Z" transform="matrix(1 0 0 1 0 0)" fill="none" stroke="#476c85" stroke-width="1.5" stroke-linecap="round" stroke-linejoin="round" opacity="1"/><text x="866" y="137" transform="matrix(1 0 0 1 0 0)" fill="#eaf2ff" opacity="1" text-anchor="middle" dominant-baseline="central" style="font:400 18px system-ui,&quot;Microsoft YaHei&quot;,sans-serif">两条路线同时进行</text><path d="M754 238L757.7 234.9272L761.4 231.9756L765.1 229.145L768.8 226.4356L772.5 223.8472L776.2 221.38L779.9 219.0339L783.6 216.8089L787.3 214.705L791 212.7222L794.7 210.8606L798.4 209.12L802.1 207.5006L805.8 206.0022L809.5 204.625L813.2 203.3689L816.9 202.2339L820.6 201.22L824.3 200.3272L828 199.5556L831.7 198.905L835.4 198.3756L839.1 197.9672L842.8 197.68L846.5 197.5139L850.2 197.4689L853.9 197.545L857.6 197.7422L861.3 198.0606L865 198.5L868.7 199.0606L872.4 199.7422L876.1 200.545L879.8 201.4689L883.5 202.5139L887.2 203.68L890.9 204.9672L894.6 206.3756L898.3 207.905L902 209.5556L905.7 211.3272L909.4 213.22L913.1 215.2339L916.8 217.3689L920.5 219.625L924.2 222.0022L927.9 224.5006L931.6 227.12L935.3 229.8606L939 232.7222L942.7 235.705L946.4 238.8089L950.1 242.0339L953.8 245.38L957.5 248.8472L961.2 252.4356L964.9 256.145L968.6 259.9756L972.3 263.9272L976 268" transform="matrix(1 0 0 1 0 0)" fill="none" stroke="#ffc58a88" stroke-width="2" stroke-linecap="round" stroke-linejoin="round" opacity="1" stroke-dasharray="5 5"/><path d="M754 238L754.2775 237.7653L754.555 237.5314L754.8325 237.2981L755.11 237.0655L755.3875 236.8335L755.665 236.6023L755.9425 236.3717L756.22 236.1418L756.4975 235.9126L756.775 235.6841L757.0525 235.4562L757.33 235.2291L757.6075 235.0026L757.885 234.7768L758.1625 234.5516L758.44 234.3272L758.7175 234.1034L758.995 233.8804L759.2725 233.658L759.55 233.4363L759.8275 233.2152L760.105 232.9949L760.3825 232.7752L760.66 232.5562L760.9375 232.3379L761.215 232.1203L761.4925 231.9033L761.77 231.6871L762.0475 231.4715L762.325 231.2566L762.6025 231.0423L762.88 230.8288L763.1575 230.6159L763.435 230.4038L763.7125 230.1923L763.99 229.9815L764.2675 229.7713L764.545 229.5619L764.8225 229.3531L765.1 229.145L765.3775 228.9376L765.655 228.7309L765.9325 228.5248L766.21 228.3195L766.4875 228.1148L766.765 227.9108L767.0425 227.7074L767.32 227.5048L767.5975 227.3028L767.875 227.1016" transform="matrix(1 0 0 1 0 0)" fill="none" stroke="#ffc58a" stroke-width="3" stroke-linecap="round" stroke-linejoin="round" opacity="1"/><path d="M772.875 227.1016A5 5 0 0 1 762.875 227.1016A5 5 0 0 1 772.875 227.1016" transform="matrix(1 0 0 1 0 0)" fill="#ffc58a" opacity="1"/><path d="M754 238L968 169" transform="matrix(1 0 0 1 0 0)" fill="none" stroke="#71ead0" stroke-width="2" stroke-linecap="round" stroke-linejoin="round" opacity="1"/><path d="M772.375 233.6875A5 5 0 0 1 762.375 233.6875A5 5 0 0 1 772.375 233.6875" transform="matrix(1 0 0 1 0 0)" fill="#71ead0" opacity="1"/><text x="890" y="169" transform="matrix(1 0 0 1 0 0)" fill="#71ead0" opacity="1" text-anchor="middle" dominant-baseline="central" style="font:400 15px system-ui,&quot;Microsoft YaHei&quot;,sans-serif">二级继续飞</text><text x="829" y="274" transform="matrix(1 0 0 1 0 0)" fill="#ffc58a" opacity="1" text-anchor="middle" dominant-baseline="central" style="font:400 15px system-ui,&quot;Microsoft YaHei&quot;,sans-serif">一级返回</text><path d="M741 318L991 318Q1005 318 1005 332L1005 484Q1005 498 991 498L741 498Q727 498 727 484L727 332Q727 318 741 318Z" transform="matrix(1 0 0 1 0 0)" fill="#102b40" opacity="1"/><path d="M741 318L991 318Q1005 318 1005 332L1005 484Q1005 498 991 498L741 498Q727 498 727 484L727 332Q727 318 741 318Z" transform="matrix(1 0 0 1 0 0)" fill="none" stroke="#476c85" stroke-width="1.5" stroke-linecap="round" stroke-linejoin="round" opacity="1"/><text x="754" y="346" transform="matrix(1 0 0 1 0 0)" fill="#93abc5" opacity="1" text-anchor="start" dominant-baseline="central" style="font:400 17px system-ui,&quot;Microsoft YaHei&quot;,sans-serif">主发动机</text><text x="754" y="382" transform="matrix(1 0 0 1 0 0)" fill="#71ead0" opacity="1" text-anchor="start" dominant-baseline="central" style="font:650 27px system-ui,&quot;Microsoft YaHei&quot;,sans-serif">关闭</text><text x="754" y="424" transform="matrix(1 0 0 1 0 0)" fill="#eaf2ff" opacity="1" text-anchor="start" dominant-baseline="central" style="font:400 17px system-ui,&quot;Microsoft YaHei&quot;,sans-serif">关机仍保持运动</text><text x="754" y="466" transform="matrix(1 0 0 1 0 0)" fill="#93abc5" opacity="1" text-anchor="start" dominant-baseline="central" style="font:400 16px system-ui,&quot;Microsoft YaHei&quot;,sans-serif">掉头 ≠ 立刻折返</text><text x="38" y="556" transform="matrix(1 0 0 1 0 0)" fill="#93abc5" opacity="1" text-anchor="start" dominant-baseline="central" style="font:400 18px system-ui,&quot;Microsoft YaHei&quot;,sans-serif">顺航向海上回收示例 · 未安排返场点火</text><text x="30" y="591" transform="matrix(1 0 0 1 0 0)" fill="#90a9be" opacity="1" text-anchor="start" dominant-baseline="central" style="font:400 14px system-ui,&quot;Microsoft YaHei&quot;,sans-serif">原创 SVG 示意 · 部件、距离与时间不按真实比例</text></g></svg>